<svg width="24" height="24" viewBox="0 0 24 24" fill="none" xmlns="http://www.w3.org/2000/svg">
<path d="M7.40152 3.15518L3.34436 6.40568L2.09385 4.84484L6.15101 1.59434L7.40152 3.15518Z" fill="black"/>
<path d="M12.9995 12H16.9995V14H10.9995L10.9995 8H12.9995L12.9995 12Z" fill="black"/>
<path fill-rule="evenodd" clip-rule="evenodd" d="M2.99953 13C2.99953 8.02944 7.02896 4 11.9995 4C16.9701 4 20.9995 8.02944 20.9995 13C20.9995 17.9706 16.9701 22 11.9995 22C7.02896 22 2.99953 17.9706 2.99953 13ZM11.9995 6C8.13353 6 4.99953 9.13401 4.99953 13C4.99953 16.866 8.13353 20 11.9995 20C15.8655 20 18.9995 16.866 18.9995 13C18.9995 9.13401 15.8655 6 11.9995 6Z" fill="black"/>
<path d="M20.651 6.40568L16.5938 3.15518L17.8444 1.59434L21.9015 4.84484L20.651 6.40568Z" fill="black"/>
</svg>
