<svg width="24" height="24" viewBox="0 0 24 24" fill="none" xmlns="http://www.w3.org/2000/svg">
<path fill-rule="evenodd" clip-rule="evenodd" d="M11.9997 6C10.3428 6 8.99967 7.34315 8.99967 9C8.99967 10.6569 10.3428 12 11.9997 12C13.6565 12 14.9997 10.6569 14.9997 9C14.9997 7.34315 13.6565 6 11.9997 6ZM10.9997 9C10.9997 8.44772 11.4474 8 11.9997 8C12.552 8 12.9997 8.44772 12.9997 9C12.9997 9.55228 12.552 10 11.9997 10C11.4474 10 10.9997 9.55228 10.9997 9Z" fill="black"/>
<path fill-rule="evenodd" clip-rule="evenodd" d="M11.9997 2C8.13368 2 4.99967 5.13401 4.99967 9C4.99967 10.063 5.23661 11.0706 5.66056 11.973L2.15775 18.0401L6.52925 18.4684L9.08595 22.0401L11.9978 16.9967L14.9096 22.0401L17.4662 18.4684L21.8378 18.0401L18.3371 11.9767C18.7621 11.0734 18.9997 10.0644 18.9997 9C18.9997 5.13401 15.8657 2 11.9997 2ZM5.44161 16.3522L6.91113 13.807C7.83084 14.7802 9.02672 15.4897 10.3734 15.8101L8.90571 18.3522L7.62737 16.5664L5.44161 16.3522ZM17.0858 13.8095C16.1657 14.7823 14.9695 15.4912 13.6226 15.8109L15.0898 18.3522L16.3681 16.5664L18.5539 16.3522L17.0858 13.8095ZM6.99967 9C6.99967 6.23858 9.23825 4 11.9997 4C14.7611 4 16.9997 6.23858 16.9997 9C16.9997 11.7614 14.7611 14 11.9997 14C9.23825 14 6.99967 11.7614 6.99967 9Z" fill="black"/>
</svg>
