<svg width="24" height="24" viewBox="0 0 24 24" fill="none" xmlns="http://www.w3.org/2000/svg">
<path fill-rule="evenodd" clip-rule="evenodd" d="M12 6C10.3431 6 9 7.34315 9 9C9 10.6569 10.3431 12 12 12C13.6569 12 15 10.6569 15 9C15 7.34315 13.6569 6 12 6ZM11 9C11 8.44772 11.4477 8 12 8C12.5523 8 13 8.44772 13 9C13 9.55228 12.5523 10 12 10C11.4477 10 11 9.55228 11 9Z" fill="black"/>
<path fill-rule="evenodd" clip-rule="evenodd" d="M5 9C5 5.13401 8.13401 2 12 2C15.866 2 19 5.13401 19 9C19 10.9073 18.2372 12.6364 17 13.899V22.5518L12 20.2833L7 22.5518V13.899C5.76281 12.6364 5 10.9073 5 9ZM15 13H15.0005C16.2147 12.0878 17 10.6356 17 9C17 6.23858 14.7614 4 12 4C9.23858 4 7 6.23858 7 9C7 10.6356 7.78534 12.0878 8.99951 13H9V13.0004C9.83566 13.6281 10.8744 14 12 14C13.1256 14 14.1643 13.6281 15 13.0004V13ZM9 19.4482V15.3264C9.62171 15.6217 10.2939 15.8281 11 15.9291V18.5408L9 19.4482ZM15 15.3264C14.3783 15.6217 13.7061 15.8281 13 15.9291V18.5408L15 19.4482V15.3264Z" fill="black"/>
</svg>
