<svg width="24" height="24" viewBox="0 0 24 24" fill="none" xmlns="http://www.w3.org/2000/svg">
<path fill-rule="evenodd" clip-rule="evenodd" d="M12 2C7.58172 2 4 5.58172 4 10V13.2639L3 15.2639V18.5H8.00769C8.13673 20.5927 9.87482 22.25 12 22.25C14.1252 22.25 15.8633 20.5927 15.9923 18.5H21V15.2639L20 13.2639V10C20 5.58172 16.4183 2 12 2ZM13.9845 18.5H10.0155C10.1385 19.4866 10.9801 20.25 12 20.25C13.0199 20.25 13.8615 19.4866 13.9845 18.5ZM6 10C6 6.68629 8.68629 4 12 4C15.3137 4 18 6.68629 18 10V13.7361L19 15.7361V16.5H5V15.7361L6 13.7361V10Z" fill="black"/>
</svg>
