<svg width="24" height="24" viewBox="0 0 24 24" fill="none" xmlns="http://www.w3.org/2000/svg">
<path fill-rule="evenodd" clip-rule="evenodd" d="M12 8C9.23858 8 7 10.2386 7 13C7 15.7614 9.23858 18 12 18C14.7614 18 17 15.7614 17 13C17 10.2386 14.7614 8 12 8ZM9 13C9 11.3431 10.3431 10 12 10C13.6569 10 15 11.3431 15 13C15 14.6569 13.6569 16 12 16C10.3431 16 9 14.6569 9 13Z" fill="black"/>
<path fill-rule="evenodd" clip-rule="evenodd" d="M15.618 2.5H8.38197L6.38197 6.5H2V21.5H22V6.5H17.618L15.618 2.5ZM4 8.5H7.61803L9.61803 4.5H14.382L16.382 8.5H20V19.5H4V8.5Z" fill="black"/>
</svg>
