<svg width="24" height="24" viewBox="0 0 24 24" fill="none" xmlns="http://www.w3.org/2000/svg">
<path fill-rule="evenodd" clip-rule="evenodd" d="M2 2H5.72076L6.72076 5H22.6975L16.6016 16H9.5L7.72735 18.3635C7.75022 18.4083 7.77178 18.4538 7.79198 18.5H16.208C16.5938 17.617 17.4748 17 18.5 17C19.8807 17 21 18.1193 21 19.5C21 20.8807 19.8807 22 18.5 22C17.4748 22 16.5938 21.383 16.208 20.5H7.79198C7.4062 21.383 6.52516 22 5.5 22C4.11929 22 3 20.8807 3 19.5C3 18.1193 4.11929 17 5.5 17C5.73565 17 5.96368 17.0326 6.17984 17.0935L7.88563 14.8192L4.27924 4H2V2ZM9.72076 14H15.4234L19.3025 7H7.38743L9.72076 14ZM18.5 19C18.2239 19 18 19.2239 18 19.5C18 19.7761 18.2239 20 18.5 20C18.7761 20 19 19.7761 19 19.5C19 19.2239 18.7761 19 18.5 19ZM5 19.5C5 19.2239 5.22386 19 5.5 19C5.77614 19 6 19.2239 6 19.5C6 19.7761 5.77614 20 5.5 20C5.22386 20 5 19.7761 5 19.5Z" fill="black"/>
</svg>
