<svg width="24" height="24" viewBox="0 0 24 24" fill="none" xmlns="http://www.w3.org/2000/svg">
<path d="M6.75 10.75C6.05964 10.75 5.5 11.3096 5.5 12C5.5 12.6904 6.05964 13.25 6.75 13.25C7.44036 13.25 8 12.6904 8 12C8 11.3096 7.44036 10.75 6.75 10.75Z" fill="black"/>
<path d="M16 12C16 11.3096 16.5596 10.75 17.25 10.75C17.9404 10.75 18.5 11.3096 18.5 12C18.5 12.6904 17.9404 13.25 17.25 13.25C16.5596 13.25 16 12.6904 16 12Z" fill="black"/>
<path fill-rule="evenodd" clip-rule="evenodd" d="M12 9.25C10.4812 9.25 9.25 10.4812 9.25 12C9.25 13.5188 10.4812 14.75 12 14.75C13.5188 14.75 14.75 13.5188 14.75 12C14.75 10.4812 13.5188 9.25 12 9.25ZM11.25 12C11.25 11.5858 11.5858 11.25 12 11.25C12.4142 11.25 12.75 11.5858 12.75 12C12.75 12.4142 12.4142 12.75 12 12.75C11.5858 12.75 11.25 12.4142 11.25 12Z" fill="black"/>
<path fill-rule="evenodd" clip-rule="evenodd" d="M22 6H2V18H22V6ZM4 16V8H20V16H4Z" fill="black"/>
</svg>
