<svg width="24" height="24" viewBox="0 0 24 24" fill="none" xmlns="http://www.w3.org/2000/svg">
<path fill-rule="evenodd" clip-rule="evenodd" d="M2 12C2 6.47715 6.47715 2 12 2C17.5228 2 22 6.47715 22 12C22 14.7611 20.8796 17.2625 19.0711 19.0711C17.2625 20.8796 14.7611 22 12 22C6.47715 22 2 17.5228 2 12ZM11 4.06189C7.05369 4.55399 4 7.92038 4 12C4 16.4183 7.58172 20 12 20C13.8491 20 15.5506 19.3736 16.9057 18.3199L11 12.4142V4.06189ZM13 4.06189V11H19.9381C19.4869 7.38128 16.6187 4.51314 13 4.06189ZM19.9382 13H14.4142L18.3199 16.9057C19.1806 15.7988 19.7562 14.4608 19.9382 13Z" fill="black"/>
</svg>
