<svg width="24" height="24" viewBox="0 0 24 24" fill="none" xmlns="http://www.w3.org/2000/svg">
<path fill-rule="evenodd" clip-rule="evenodd" d="M15 7C13.3352 7 11.8602 7.81266 10.9499 9.06732L10.4621 9.73946L9.71186 9.38352C9.19412 9.13791 8.61456 9 8 9C5.79086 9 4 10.7909 4 13C4 15.2091 5.79086 17 8 17C9.01987 17 9.94848 16.6196 10.6555 15.9915L11.2771 15.4391L11.9336 15.9497C12.7805 16.6083 13.8431 17 15 17C17.7614 17 20 14.7614 20 12C20 9.23858 17.7614 7 15 7ZM9.82739 7.28364C11.1065 5.88174 12.9503 5 15 5C18.866 5 22 8.13401 22 12C22 15.866 18.866 19 15 19C13.665 19 12.4156 18.6255 11.3533 17.9761C10.396 18.6222 9.24133 19 8 19C4.68629 19 2 16.3137 2 13C2 9.68629 4.68629 7 8 7C8.63615 7 9.25043 7.09933 9.82739 7.28364Z" fill="black"/>
</svg>
