<svg width="24" height="24" viewBox="0 0 24 24" fill="none" xmlns="http://www.w3.org/2000/svg">
<path d="M11.375 4C9.27659 4 7.52114 5.47833 7.09753 7.45107L6.98581 7.97132L6.49192 8.16931C5.61583 8.52053 5 9.37705 5 10.375C5 11.6867 6.06332 12.75 7.375 12.75C7.82845 12.75 8.24939 12.6239 8.60811 12.4054L9 12.1666V14.438C8.49696 14.6393 7.94818 14.75 7.375 14.75C4.95875 14.75 3 12.7912 3 10.375C3 8.72117 3.91739 7.28355 5.26835 6.53994C6.05664 3.9138 8.4913 2 11.375 2C13.2097 2 14.8637 2.77599 16.0256 4.01471C18.8071 4.21965 21 6.54123 21 9.375C21 12.3435 18.5935 14.75 15.625 14.75C15.4137 14.75 15.2052 14.7378 15 14.714V12.6924C15.2022 12.7302 15.4111 12.75 15.625 12.75C17.489 12.75 19 11.239 19 9.375C19 7.51104 17.489 6 15.625 6C15.6079 6 15.5908 6.00013 15.5737 6.00038L15.0869 6.00759L14.7809 5.62876C13.9773 4.63362 12.7505 4 11.375 4Z" fill="black"/>
<path d="M13 18.5857V9H11L11 18.5857L9.375 16.9607L7.96078 18.375L12 22.4142L16.0392 18.375L14.625 16.9607L13 18.5857Z" fill="black"/>
</svg>
