<svg width="24" height="24" viewBox="0 0 24 24" fill="none" xmlns="http://www.w3.org/2000/svg">
<path d="M12 10.5C11.1716 10.5 10.5 11.1716 10.5 12C10.5 12.8284 11.1716 13.5 12 13.5C12.8284 13.5 13.5 12.8284 13.5 12C13.5 11.1716 12.8284 10.5 12 10.5Z" fill="black"/>
<path fill-rule="evenodd" clip-rule="evenodd" d="M13 2V4.06189C16.6187 4.51314 19.4869 7.38128 19.9381 11H22V13H19.9381C19.4869 16.6187 16.6187 19.4869 13 19.9381V22H11V19.9381C7.38128 19.4869 4.51314 16.6187 4.06189 13H2V11H4.06189C4.51314 7.38128 7.38128 4.51314 11 4.06189V2L13 2ZM6.08296 13H8V11H6.08296C6.50448 8.48749 8.4875 6.50448 11 6.08296V8H13V6.08296C15.5125 6.50448 17.4955 8.4875 17.917 11H16V13H17.917C17.4955 15.5125 15.5125 17.4955 13 17.917V16H11V17.917C8.48749 17.4955 6.50448 15.5125 6.08296 13Z" fill="black"/>
</svg>
