<svg width="24" height="24" viewBox="0 0 24 24" fill="none" xmlns="http://www.w3.org/2000/svg">
<path fill-rule="evenodd" clip-rule="evenodd" d="M12 2C6.47715 2 2 6.47715 2 12C2 17.5228 6.47715 22 12 22C17.5228 22 22 17.5228 22 12C22 6.47715 17.5228 2 12 2ZM4.62433 8.89635C4.22225 9.8507 4 10.8994 4 12C4 12.6906 4.08751 13.3608 4.25203 14H9.17071C9.47199 13.1476 10.1476 12.472 11 12.1707V8H13V12.1707C13.8524 12.472 14.528 13.1476 14.8293 14H19.748C19.9125 13.3608 20 12.6906 20 12C20 10.8994 19.7777 9.85071 19.3757 8.89636L17.9127 9.74104L16.9127 8.00898L18.3743 7.16513C17.1034 5.49222 15.189 4.33486 13 4.06189V5.75H11V4.06189C8.81099 4.33486 6.89663 5.49222 5.62576 7.16512L7.08734 8.00896L6.08734 9.74102L4.62433 8.89635ZM11 15C11 14.4477 11.4477 14 12 14C12.5523 14 13 14.4477 13 15C13 15.5523 12.5523 16 12 16C11.4477 16 11 15.5523 11 15ZM14.8293 16C14.4175 17.1652 13.3062 18 12 18C10.6938 18 9.58254 17.1652 9.17071 16H5.07026C6.4535 18.3912 9.03887 20 12 20C14.9611 20 17.5465 18.3912 18.9297 16H14.8293Z" fill="black"/>
</svg>
