<svg width="24" height="24" viewBox="0 0 24 24" fill="none" xmlns="http://www.w3.org/2000/svg">
<path d="M2 11H5V13H2V15H5.07089C5.55612 18.3923 8.47353 21 12 21V19C9.58104 19 7.56329 17.2822 7.10002 15H13V13H7V11H13V9H7.10002C7.56329 6.71776 9.58104 5 12 5V3C8.47353 3 5.55612 5.60771 5.07089 9H2V11Z" fill="black"/>
<path d="M12 3C14.4358 3 16.5803 4.24492 17.8327 6.12853L16.1673 7.23588C15.2698 5.8861 13.7382 5 12 5V3Z" fill="black"/>
<path d="M12 19C13.7382 19 15.2698 18.1139 16.1673 16.7641L17.8327 17.8715C16.5803 19.7551 14.4358 21 12 21V19Z" fill="black"/>
</svg>
