<svg width="24" height="24" viewBox="0 0 24 24" fill="none" xmlns="http://www.w3.org/2000/svg">
<path fill-rule="evenodd" clip-rule="evenodd" d="M12 8.5C10.067 8.5 8.50001 10.067 8.50001 12C8.50001 13.933 10.067 15.5 12 15.5C13.933 15.5 15.5 13.933 15.5 12C15.5 10.067 13.933 8.5 12 8.5ZM10.5 12C10.5 11.1716 11.1716 10.5 12 10.5C12.8284 10.5 13.5 11.1716 13.5 12C13.5 12.8284 12.8284 13.5 12 13.5C11.1716 13.5 10.5 12.8284 10.5 12Z" fill="black"/>
<path fill-rule="evenodd" clip-rule="evenodd" d="M12 4C8.11224 4 5.59694 5.96259 4.08869 7.88218C3.33939 8.83583 2.83166 9.78476 2.51077 10.4941C2.34978 10.85 2.23426 11.149 2.15787 11.3629C2.11965 11.4699 2.09111 11.5559 2.07149 11.6174C2.06168 11.6482 2.05409 11.6728 2.04862 11.691C2.04589 11.7 2.04368 11.7074 2.042 11.7132C2.04115 11.716 2.04044 11.7185 2.03986 11.7205L2.03907 11.7232L2.03875 11.7243C2.03862 11.7248 2.03848 11.7253 3.00001 12L2.03848 11.7253L1.95999 12L2.03848 12.2747L3.00001 12C2.03848 12.2747 2.03862 12.2752 2.03875 12.2757L2.03907 12.2768L2.03986 12.2795L2.04062 12.2821L2.042 12.2868C2.04368 12.2926 2.04589 12.3 2.04862 12.309C2.05409 12.3272 2.06168 12.3518 2.07149 12.3826C2.09111 12.4441 2.11965 12.5301 2.15787 12.6371C2.23426 12.851 2.34978 13.15 2.51077 13.5059C2.83166 14.2152 3.33939 15.1642 4.08869 16.1178C5.59694 18.0374 8.11224 20 12 20C15.8878 20 18.4031 18.0374 19.9113 16.1178C20.6606 15.1642 21.1684 14.2152 21.4892 13.5059C21.6502 13.15 21.7658 12.851 21.8421 12.6371C21.8804 12.5301 21.9089 12.4441 21.9285 12.3826C21.9383 12.3518 21.9459 12.3272 21.9514 12.309C21.9527 12.3049 21.9538 12.3011 21.9548 12.2976C21.956 12.2935 21.9571 12.2899 21.958 12.2868L21.9591 12.2833L21.9602 12.2795L21.9609 12.2768L21.9613 12.2757C21.9614 12.2752 21.9615 12.2747 21 12L21.9615 12.2747L22.04 12L21.9615 11.7253L21 12C21.9615 11.7253 21.9614 11.7248 21.9613 11.7243L21.9609 11.7232L21.9602 11.7205C21.9596 11.7185 21.9589 11.716 21.958 11.7132C21.9563 11.7074 21.9541 11.7 21.9514 11.691C21.9459 11.6728 21.9383 11.6482 21.9285 11.6174C21.9089 11.5559 21.8804 11.4699 21.8421 11.3629C21.7658 11.149 21.6502 10.85 21.4892 10.4941C21.1684 9.78476 20.6606 8.83583 19.9113 7.88218C18.4031 5.96259 15.8878 4 12 4ZM4.33299 12.6816C4.20636 12.4017 4.11486 12.1673 4.05416 12C4.11486 11.8327 4.20636 11.5983 4.33299 11.3184C4.60586 10.7152 5.03562 9.91417 5.66133 9.11782C6.90308 7.53741 8.88777 6 12 6C15.1122 6 17.0969 7.53741 18.3387 9.11782C18.9644 9.91417 19.3942 10.7152 19.667 11.3184C19.7937 11.5983 19.8852 11.8327 19.9459 12C19.8852 12.1673 19.7937 12.4017 19.667 12.6816C19.3942 13.2848 18.9644 14.0858 18.3387 14.8822C17.0969 16.4626 15.1122 18 12 18C8.88777 18 6.90308 16.4626 5.66133 14.8822C5.03562 14.0858 4.60586 13.2848 4.33299 12.6816Z" fill="black"/>
</svg>
