<svg width="24" height="24" viewBox="0 0 24 24" fill="none" xmlns="http://www.w3.org/2000/svg">
<path fill-rule="evenodd" clip-rule="evenodd" d="M3.25001 3.33578L5.94087 6.02664C7.42158 4.87434 9.40508 3.99999 12 3.99999C15.8878 3.99999 18.4031 5.96258 19.9113 7.88217C20.6606 8.83582 21.1684 9.78475 21.4892 10.4941C21.6502 10.85 21.7658 11.149 21.8421 11.3629C21.8804 11.4699 21.9089 11.5559 21.9285 11.6174C21.9383 11.6482 21.9459 11.6728 21.9514 11.6909C21.9526 11.6949 21.9537 11.6986 21.9547 11.702C21.956 11.7062 21.9571 11.71 21.958 11.7132C21.9589 11.716 21.9596 11.7185 21.9602 11.7205L21.9609 11.7232L21.9613 11.7243C21.9614 11.7248 21.9615 11.7253 21 12C21.9615 12.2747 21.9614 12.2752 21.9613 12.2757L21.9609 12.2768L21.9602 12.2795C21.9596 12.2815 21.9589 12.284 21.958 12.2868L21.9566 12.2916C21.9561 12.2935 21.9555 12.2955 21.9548 12.2976C21.9538 12.3011 21.9527 12.3049 21.9514 12.309C21.9459 12.3272 21.9383 12.3518 21.9285 12.3826C21.9089 12.4441 21.8804 12.5301 21.8421 12.6371C21.7658 12.851 21.6502 13.15 21.4892 13.5059C21.1684 14.2152 20.6606 15.1642 19.9113 16.1178C19.3879 16.7839 18.7433 17.4552 17.9621 18.0479L20.6642 20.75L19.4142 22L2.00001 4.58578L3.25001 3.33578ZM18.3387 14.8822C17.8561 15.4964 17.2613 16.1041 16.5318 16.6175L14.4331 14.5188L14.5165 14.4326C15.1244 13.8038 15.5 12.9447 15.5 12C15.5 10.067 13.933 8.49999 12 8.49999C11.0553 8.49999 10.1962 8.87562 9.56743 9.48353L9.48116 9.56694L7.36825 7.45402C8.52956 6.6088 10.0415 5.99999 12 5.99999C15.1122 5.99999 17.0969 7.5374 18.3387 9.11782C18.9644 9.91417 19.3942 10.7152 19.667 11.3184C19.7937 11.5983 19.8852 11.8327 19.9459 12C19.8852 12.1673 19.7937 12.4016 19.667 12.6816C19.3942 13.2848 18.9644 14.0858 18.3387 14.8822ZM13.0786 13.0424L13.0186 13.1044L10.8956 10.9813L10.9576 10.9214C11.2284 10.6595 11.5946 10.5 12 10.5C12.8284 10.5 13.5 11.1716 13.5 12C13.5 12.4054 13.3405 12.7716 13.0786 13.0424ZM20.039 12.2767C20.0392 12.2772 20.0392 12.2773 20.0391 12.2769L20.039 12.2767Z" fill="black"/>
<path d="M3.41533 8.82953C3.02039 9.44431 2.72424 10.0222 2.51077 10.4941C2.34978 10.85 2.23426 11.149 2.15787 11.3629C2.11965 11.4699 2.09111 11.5559 2.07149 11.6174C2.06168 11.6482 2.05409 11.6728 2.04862 11.6909C2.04589 11.7 2.04368 11.7074 2.042 11.7132C2.04115 11.716 2.04044 11.7185 2.03986 11.7205L2.03907 11.7232L2.03875 11.7243C2.03862 11.7248 2.03848 11.7253 3.00001 12L2.03848 11.7253L1.95999 12L2.03848 12.2747L3.00001 12C2.03848 12.2747 2.03862 12.2752 2.03875 12.2757L2.03907 12.2768L2.03986 12.2795L2.04062 12.2821L2.042 12.2868C2.04368 12.2926 2.04589 12.3 2.04862 12.309C2.05409 12.3272 2.06168 12.3518 2.07149 12.3826C2.09111 12.4441 2.11965 12.5301 2.15787 12.6371C2.23426 12.851 2.34978 13.15 2.51077 13.5059C2.83166 14.2152 3.33939 15.1642 4.08869 16.1178C5.59694 18.0374 8.11224 20 12 20C12.8399 20 13.6157 19.9084 14.3312 19.7454L12.5683 17.9825C12.3832 17.994 12.1938 18 12 18C8.88777 18 6.90308 16.4626 5.66133 14.8822C5.03562 14.0858 4.60586 13.2848 4.33299 12.6816C4.20636 12.4016 4.11486 12.1673 4.05416 12C4.11486 11.8327 4.20636 11.5983 4.33299 11.3184C4.4703 11.0149 4.64735 10.6612 4.8691 10.2833L3.41533 8.82953Z" fill="black"/>
<path d="M21 12L21.9615 11.7253L22.04 12L21.9615 12.2747L21 12Z" fill="black"/>
</svg>
