<svg width="24" height="24" viewBox="0 0 24 24" fill="none" xmlns="http://www.w3.org/2000/svg">
<path d="M7.5 9.5H6V11.5H7.5V13H9.5V11.5H11V9.5H9.5V8H7.5V9.5Z" fill="black"/>
<path d="M14.4393 8.0251L15.5 9.08576L16.5607 8.02511L17.9749 9.43932L16.9142 10.5L17.9749 11.5606L16.5607 12.9748L15.5 11.9142L14.4393 12.9749L13.0251 11.5606L14.0858 10.5L13.0251 9.43931L14.4393 8.0251Z" fill="black"/>
<path fill-rule="evenodd" clip-rule="evenodd" d="M13 4V2H11V4H2V21H7.04536L10.6454 17H13.3546L16.9546 21H22V4H13ZM4 19V6H20V19H17.8454L14.2454 15H9.75464L6.15464 19H4Z" fill="black"/>
</svg>
