<svg width="24" height="24" viewBox="0 0 24 24" fill="none" xmlns="http://www.w3.org/2000/svg">
<path fill-rule="evenodd" clip-rule="evenodd" d="M11.9998 8.50018C10.0668 8.50018 8.49976 10.0672 8.49976 12.0002C8.49976 13.9332 10.0668 15.5002 11.9998 15.5002C13.9328 15.5002 15.4998 13.9332 15.4998 12.0002C15.4998 10.0672 13.9328 8.50018 11.9998 8.50018ZM10.4998 12.0002C10.4998 11.1718 11.1713 10.5002 11.9998 10.5002C12.8282 10.5002 13.4998 11.1718 13.4998 12.0002C13.4998 12.8286 12.8282 13.5002 11.9998 13.5002C11.1713 13.5002 10.4998 12.8286 10.4998 12.0002Z" fill="black"/>
<path fill-rule="evenodd" clip-rule="evenodd" d="M11.9998 1.58597L1.58554 12.0002L11.9998 22.4144L22.414 12.0002L11.9998 1.58597ZM11.9998 19.586L4.41397 12.0002L11.9998 4.41439L19.5855 12.0002L11.9998 19.586Z" fill="black"/>
</svg>
