<svg width="24" height="24" viewBox="0 0 24 24" fill="none" xmlns="http://www.w3.org/2000/svg">
<path fill-rule="evenodd" clip-rule="evenodd" d="M12 2.05051C12.6353 1.40223 13.5207 1 14.5 1C16.433 1 18 2.567 18 4.5C18 5.0368 17.8792 5.54537 17.6632 6H22V14H21V22H3V14H2V6H6.33682C6.12085 5.54537 6 5.0368 6 4.5C6 2.567 7.567 1 9.5 1C10.4793 1 11.3647 1.40223 12 2.05051ZM11 4.5C11 3.67157 10.3284 3 9.5 3C8.67157 3 8 3.67157 8 4.5C8 5.32843 8.67157 6 9.5 6C10.3284 6 11 5.32843 11 4.5ZM4 8V12H11V8H4ZM16 4.5C16 5.32843 15.3284 6 14.5 6C13.6716 6 13 5.32843 13 4.5C13 3.67157 13.6716 3 14.5 3C15.3284 3 16 3.67157 16 4.5ZM13 8H20V12H13V8ZM13 14V20H19V14H13ZM11 14H5V20H11V14Z" fill="black"/>
</svg>
