<svg width="24" height="24" viewBox="0 0 24 24" fill="none" xmlns="http://www.w3.org/2000/svg">
<path fill-rule="evenodd" clip-rule="evenodd" d="M2 4H22V20H2V4ZM4 6V12.9194L8.18096 9.57461L14.5 18H20V6H4ZM12 18L7.81904 12.4254L4 15.4806V18H12Z" fill="black"/>
<path fill-rule="evenodd" clip-rule="evenodd" d="M11.75 10.75C11.75 8.817 13.317 7.25 15.25 7.25C17.183 7.25 18.75 8.817 18.75 10.75C18.75 12.683 17.183 14.25 15.25 14.25C13.317 14.25 11.75 12.683 11.75 10.75ZM15.25 9.25C14.4216 9.25 13.75 9.92157 13.75 10.75C13.75 11.5784 14.4216 12.25 15.25 12.25C16.0784 12.25 16.75 11.5784 16.75 10.75C16.75 9.92157 16.0784 9.25 15.25 9.25Z" fill="black"/>
</svg>
