<svg width="24" height="24" viewBox="0 0 24 24" fill="none" xmlns="http://www.w3.org/2000/svg">
<path fill-rule="evenodd" clip-rule="evenodd" d="M12 5C8.13401 5 5 8.13401 5 12C5 15.866 8.13401 19 12 19C14.5007 19 16.6951 17.6887 17.9331 15.7163C17.122 16.1218 16.2066 16.35 15.2375 16.35C11.9031 16.35 9.2 13.6469 9.2 10.3125C9.2 8.02376 10.4735 6.03246 12.3506 5.00861C12.2345 5.00289 12.1176 5 12 5ZM3 12C3 7.02944 7.02944 3 12 3C13.9337 3 15.7276 3.61095 17.1955 4.65026L16.3442 6.4283C15.9937 6.32866 15.6227 6.275 15.2375 6.275C13.0077 6.275 11.2 8.08265 11.2 10.3125C11.2 12.5423 13.0077 14.35 15.2375 14.35C17.0038 14.35 18.5076 13.2152 19.0547 11.632L20.9999 11.9536C21 11.969 21 11.9845 21 12C21 16.9706 16.9706 21 12 21C7.02944 21 3 16.9706 3 12Z" fill="black"/>
</svg>
