<svg width="24" height="24" viewBox="0 0 24 24" fill="none" xmlns="http://www.w3.org/2000/svg">
<path fill-rule="evenodd" clip-rule="evenodd" d="M21 1.91318V17.5C21 17.5 21 17.5 21 17.5C21 19.433 19.433 21 17.5 21C15.567 21 14 19.433 14 17.5C14 15.567 15.567 14 17.5 14C18.0368 14 18.5454 14.1208 19 14.3368V9.08678L9 9.92011V18.5C9 20.433 7.433 22 5.5 22C3.567 22 2 20.433 2 18.5C2 16.567 3.567 15 5.5 15C6.0368 15 6.54537 15.1208 7 15.3368V3.07984L21 1.91318ZM19 17.5C19 16.6716 18.3284 16 17.5 16C16.6716 16 16 16.6716 16 17.5C16 18.3284 16.6716 19 17.5 19C18.3284 19 19 18.3284 19 17.5C19 17.5 19 17.5 19 17.5ZM5.5 17C6.32842 17 6.99999 17.6716 7 18.5C7 19.3284 6.32843 20 5.5 20C4.67157 20 4 19.3284 4 18.5C4 17.6716 4.67157 17 5.5 17ZM9 7.91318L19 7.07984V4.08678L9 4.92011V7.91318Z" fill="black"/>
</svg>
