<svg width="24" height="24" viewBox="0 0 24 24" fill="none" xmlns="http://www.w3.org/2000/svg">
<path fill-rule="evenodd" clip-rule="evenodd" d="M20 8.89503V1.88272L9 3.10494V15.3368C8.54537 15.1209 8.0368 15 7.5 15C5.567 15 4 16.567 4 18.5C4 20.433 5.567 22 7.5 22C9.433 22 11 20.433 11 18.5C11 18.5 11 18.5 11 18.5V9.89503L20 8.89503ZM9 18.5C8.99999 17.6716 8.32842 17 7.5 17C6.67157 17 6 17.6716 6 18.5C6 19.3284 6.67157 20 7.5 20C8.32843 20 9 19.3284 9 18.5C9 18.5 9 18.5 9 18.5ZM18 7.10494L11 7.88272V4.89503L18 4.11725V7.10494Z" fill="black"/>
</svg>
