<svg width="24" height="24" viewBox="0 0 24 24" fill="none" xmlns="http://www.w3.org/2000/svg">
<path fill-rule="evenodd" clip-rule="evenodd" d="M5.47045 10.9391C7.74444 13.7184 10.29 16.264 13.0693 18.5379L13.789 19.1268C14.9819 20.1028 16.7202 20.0161 17.8101 18.9263L19.493 17.2433L16.311 14.0613L13.6594 16.713L7.28422 10.3378L9.94471 7.695L6.76509 4.51539L5.08214 6.19833C3.99231 7.28817 3.90561 9.0265 4.88159 10.2194L5.47045 10.9391ZM11.8028 20.0859C8.92058 17.7276 6.28075 15.0878 3.92254 12.2056L3.33367 11.4858C1.70704 9.49774 1.85154 6.60051 3.66793 4.78412L6.76509 1.68696L12.7779 7.69973L10.1174 10.3425L13.6594 13.8845L16.311 11.2329L22.3214 17.2433L19.2243 20.3405C17.4079 22.1569 14.5107 22.3014 12.5226 20.6747L11.8028 20.0859Z" fill="black"/>
</svg>
