<svg width="24" height="24" viewBox="0 0 24 24" fill="none" xmlns="http://www.w3.org/2000/svg">
<path fill-rule="evenodd" clip-rule="evenodd" d="M12 2C6.47715 2 2 6.47715 2 12C2 17.5221 6.47596 21.9988 11.9978 22H12.0022C17.524 21.9988 22 17.5221 22 12C22 6.47715 17.5228 2 12 2ZM4.1404 10.5C4.04823 10.9859 4 11.4873 4 12C4 12.5127 4.04823 13.0141 4.1404 13.5H7.08315C7.02927 13.0116 7 12.5107 7 12C7 11.4893 7.02927 10.9884 7.08315 10.5H4.1404ZM4.80423 8.5H7.44886C7.77221 7.23588 8.23906 6.10279 8.74408 5.16277C8.86002 4.94698 8.97881 4.73976 9.09939 4.54206C7.2183 5.2742 5.6826 6.69749 4.80423 8.5ZM9.09737 10.5C9.03459 10.9871 9 11.4885 9 12C9 12.5115 9.03459 13.0129 9.09737 13.5H14.9026C14.9654 13.0129 15 12.5115 15 12C15 11.4885 14.9654 10.9871 14.9026 10.5H9.09737ZM14.4762 8.5H9.52377C9.79026 7.60695 10.1358 6.79823 10.5059 6.10931C10.9121 5.35333 11.3339 4.76772 11.6867 4.38683C11.8098 4.25402 11.9153 4.15594 12 4.08702C12.0847 4.15594 12.1902 4.25402 12.3133 4.38683C12.6661 4.76772 13.0879 5.35333 13.4941 6.10931C13.8642 6.79823 14.2097 7.60695 14.4762 8.5ZM16.9169 10.5C16.9707 10.9884 17 11.4893 17 12C17 12.5107 16.9707 13.0116 16.9169 13.5H19.8596C19.9518 13.0141 20 12.5127 20 12C20 11.4873 19.9518 10.9859 19.8596 10.5H16.9169ZM19.1958 8.5H16.5511C16.2278 7.23588 15.7609 6.10279 15.2559 5.16277C15.14 4.94698 15.0212 4.73976 14.9006 4.54206C16.7817 5.2742 18.3174 6.69749 19.1958 8.5ZM9.09939 19.4579C7.2183 18.7258 5.6826 17.3025 4.80423 15.5H7.44886C7.77221 16.7641 8.23906 17.8972 8.74408 18.8372C8.86002 19.053 8.97881 19.2602 9.09939 19.4579ZM10.5059 17.8907C10.1358 17.2018 9.79026 16.393 9.52377 15.5H14.4762C14.2097 16.393 13.8642 17.2018 13.4941 17.8907C13.0879 18.6467 12.6661 19.2323 12.3133 19.6132C12.1902 19.746 12.0847 19.8441 12 19.913C11.9153 19.8441 11.8098 19.746 11.6867 19.6132C11.3339 19.2323 10.9121 18.6467 10.5059 17.8907ZM15.2559 18.8372C15.7609 17.8972 16.2278 16.7641 16.5511 15.5H19.1958C18.3174 17.3025 16.7817 18.7258 14.9006 19.4579C15.0212 19.2602 15.14 19.053 15.2559 18.8372Z" fill="black"/>
</svg>
