<svg width="24" height="24" viewBox="0 0 24 24" fill="none" xmlns="http://www.w3.org/2000/svg">
<path fill-rule="evenodd" clip-rule="evenodd" d="M15.828 3.92873C16.9996 2.75716 18.8991 2.75716 20.0707 3.92873C21.2423 5.1003 21.2423 6.9998 20.0707 8.17137L18.7399 9.50212L21.2148 16.9267L17.7262 20.4154L14.1514 14.0907L11.6633 16.5787L12.6356 18.4349L9.46409 21.6064L2.39302 14.5353L5.56453 11.3638L7.42069 12.3361L9.90872 9.84806L3.58404 6.27324L7.07268 2.78461L14.4973 5.25948L15.828 3.92873ZM18.6565 5.34294C18.266 4.95242 17.6328 4.95242 17.2423 5.34294L15.0375 7.54773L7.61286 5.07285L6.85885 5.82686L13.1835 9.40168L7.79518 14.79L5.93903 13.8178L5.22145 14.5353L9.46409 18.778L10.1817 18.0604L9.20939 16.2042L14.5977 10.8159L18.1726 17.1406L18.9266 16.3866L16.4517 8.96194L18.6565 6.75716C19.047 6.36663 19.047 5.73347 18.6565 5.34294Z" fill="black"/>
</svg>
