<svg width="24" height="24" viewBox="0 0 24 24" fill="none" xmlns="http://www.w3.org/2000/svg">
<path d="M13.975 2.00004C13.9833 2.00001 13.9917 2 14 2V2.00017C16.4151 2.01708 18.5389 3.25781 19.7827 5.12853L18.1173 6.23588C17.2241 4.89258 15.7029 4.00851 13.975 4.00006C11.2251 4.01352 9 6.24691 9 9V11H13.95V13H9V18C9 18.7286 8.80521 19.4117 8.46487 20L19 20V22L4 22L4 20H5.00065C6.10492 19.9997 7 19.1044 7 18V13H4L4 11H7V9C7 5.15068 10.107 2.02705 13.95 2.00017V2C13.9583 2 13.9667 2.00001 13.975 2.00004Z" fill="black"/>
</svg>
