<svg width="24" height="24" viewBox="0 0 24 24" fill="none" xmlns="http://www.w3.org/2000/svg">
<path d="M16.224 7.77517C15.7358 7.28702 14.9444 7.28702 14.4562 7.77517C13.9681 8.26333 13.9681 9.05478 14.4562 9.54294C14.9444 10.0311 15.7358 10.0311 16.224 9.54294C16.7121 9.05478 16.7121 8.26333 16.224 7.77517Z" fill="black"/>
<path fill-rule="evenodd" clip-rule="evenodd" d="M21.245 2.75421L20.3603 10.7161L17.6905 13.3205L18.9855 17.7416L14.4562 22.2709L11.5225 19.3372L9.20485 21.598L2.13368 14.5268L4.45133 12.266L1.72829 9.54294L6.25758 5.01365L10.5862 6.28162L13.297 3.63733L21.245 2.75421ZM12.9543 17.9405L16.0696 14.9016L16.7328 17.1659L14.4562 19.4425L12.9543 17.9405ZM8.94313 7.88436L5.8831 10.8693L4.55671 9.54294L6.83332 7.26634L8.94313 7.88436ZM14.2013 5.54916L4.97977 14.5445L9.2223 18.787L18.4516 9.78408L18.9811 5.01806L14.2013 5.54916Z" fill="black"/>
</svg>
