<svg width="24" height="24" viewBox="0 0 24 24" fill="none" xmlns="http://www.w3.org/2000/svg">
<path d="M12 14.875C10.4799 14.875 9.15625 15.7226 8.47859 16.9757L6.71936 16.0243C7.73238 14.1511 9.71642 12.875 12 12.875C14.2836 12.875 16.2676 14.1511 17.2806 16.0243L15.5214 16.9757C14.8438 15.7226 13.5201 14.875 12 14.875Z" fill="black"/>
<path d="M8 9.75C8 9.05964 8.55964 8.5 9.25 8.5C9.94036 8.5 10.5 9.05964 10.5 9.75C10.5 10.4404 9.94036 11 9.25 11C8.55964 11 8 10.4404 8 9.75Z" fill="black"/>
<path d="M14.75 8.5C14.0596 8.5 13.5 9.05964 13.5 9.75C13.5 10.4404 14.0596 11 14.75 11C15.4404 11 16 10.4404 16 9.75C16 9.05964 15.4404 8.5 14.75 8.5Z" fill="black"/>
<path fill-rule="evenodd" clip-rule="evenodd" d="M12 2C6.47715 2 2 6.47715 2 12C2 17.5228 6.47715 22 12 22C17.5228 22 22 17.5228 22 12C22 6.47715 17.5228 2 12 2ZM4 12C4 7.58172 7.58172 4 12 4C16.4183 4 20 7.58172 20 12C20 16.4183 16.4183 20 12 20C7.58172 20 4 16.4183 4 12Z" fill="black"/>
</svg>
