<svg width="24" height="24" viewBox="0 0 24 24" fill="none" xmlns="http://www.w3.org/2000/svg">
<path fill-rule="evenodd" clip-rule="evenodd" d="M4.92358 6.73514C4.33138 7.50833 4 8.59846 4 9.76667C4 10.939 4.46115 12.1359 5.24024 13.3135C6.01747 14.4882 7.07215 15.584 8.15795 16.5327C9.23993 17.4781 10.3267 18.2547 11.1452 18.7959C11.4846 19.0202 11.7761 19.203 12 19.3394C12.2239 19.203 12.5154 19.0202 12.8548 18.7959C13.6733 18.2547 14.7601 17.4781 15.842 16.5327C16.9279 15.584 17.9825 14.4882 18.7598 13.3135C19.5388 12.1359 20 10.939 20 9.76667C20 8.59667 19.6708 7.5067 19.0805 6.73435C18.5118 5.99035 17.6757 5.5 16.5 5.5C15.2968 5.5 14.3905 5.99713 13.7652 6.51822C13.4519 6.77926 13.2168 7.04069 13.0621 7.23407C12.9852 7.33022 12.9294 7.40794 12.895 7.45811C12.8779 7.48314 12.8661 7.50115 12.8598 7.51098C12.8576 7.51449 12.8561 7.51695 12.8552 7.51829L12.0036 8.93773L11.1466 7.52134C11.1458 7.51998 11.1442 7.51747 11.1419 7.51386C11.1355 7.50394 11.1236 7.48583 11.1062 7.4607C11.0715 7.41034 11.0152 7.33241 10.9377 7.23605C10.7818 7.04223 10.5453 6.78033 10.2309 6.51888C9.6028 5.99653 8.69628 5.5 7.5 5.5C6.3315 5.5 5.49462 5.98958 4.92358 6.73514ZM12 20.5C11.5148 21.3744 11.5146 21.3743 11.5143 21.3741L11.5115 21.3726C11.5099 21.3717 11.5077 21.3704 11.5049 21.3689C11.4995 21.3658 11.4919 21.3616 11.4822 21.3561C11.4628 21.3452 11.4352 21.3294 11.3997 21.309C11.3289 21.2682 11.227 21.2087 11.0985 21.1316C10.8417 20.9773 10.4777 20.7521 10.0423 20.4643C9.17334 19.8898 8.01007 19.0594 6.84205 18.0388C5.67785 17.0217 4.48253 15.7929 3.57226 14.417C2.66385 13.044 2 11.4643 2 9.76667C2 8.25154 2.42487 6.70834 3.3358 5.51902C4.26788 4.30209 5.681 3.5 7.5 3.5C9.29122 3.5 10.6347 4.25347 11.5097 4.98112C11.6913 5.13212 11.8541 5.28305 11.9982 5.42761C12.1418 5.28323 12.3039 5.13254 12.4848 4.98178C13.3595 4.25287 14.7032 3.5 16.5 3.5C18.3243 3.5 19.7382 4.30132 20.6695 5.51982C21.5792 6.70997 22 8.25333 22 9.76667C22 11.4643 21.3362 13.044 20.4277 14.417C19.5175 15.7929 18.3221 17.0217 17.158 18.0388C15.9899 19.0594 14.8267 19.8898 13.9577 20.4643C13.5223 20.7521 13.1583 20.9773 12.9015 21.1316C12.773 21.2087 12.6711 21.2682 12.6003 21.309C12.5648 21.3294 12.5372 21.3452 12.5178 21.3561C12.5132 21.3587 12.5091 21.361 12.5055 21.363C12.5014 21.3653 12.4979 21.3673 12.4951 21.3689C12.4923 21.3704 12.4901 21.3717 12.4885 21.3726L12.4857 21.3741C12.4854 21.3743 12.4852 21.3744 12 20.5ZM12 20.5L12.4852 21.3744L12 21.6436L11.5148 21.3744L12 20.5Z" fill="black"/>
</svg>
