<svg width="24" height="24" viewBox="0 0 24 24" fill="none" xmlns="http://www.w3.org/2000/svg">
<path d="M11 19.75V22H13V19.75H11Z" fill="black"/>
<path d="M11 2V4.25H13V2L11 2Z" fill="black"/>
<path fill-rule="evenodd" clip-rule="evenodd" d="M6 12C6 8.68629 8.68629 6 12 6C15.3137 6 18 8.68629 18 12C18 15.3137 15.3137 18 12 18C8.68629 18 6 15.3137 6 12ZM12 8C9.79086 8 8 9.79086 8 12C8 14.2091 9.79086 16 12 16C14.2091 16 16 14.2091 16 12C16 9.79086 14.2091 8 12 8Z" fill="black"/>
<path d="M2 11H4.25V13H2V11Z" fill="black"/>
<path d="M19.75 11H22V13H19.75V11Z" fill="black"/>
<path d="M5.63604 4.22183L7.22703 5.81282L5.81281 7.22703L4.22182 5.63604L5.63604 4.22183Z" fill="black"/>
<path d="M18.1872 16.773L19.7782 18.364L18.364 19.7782L16.773 18.1872L18.1872 16.773Z" fill="black"/>
<path d="M5.81282 16.773L4.22183 18.364L5.63604 19.7782L7.22703 18.1872L5.81282 16.773Z" fill="black"/>
<path d="M18.364 4.22183L16.773 5.81282L18.1872 7.22703L19.7782 5.63604L18.364 4.22183Z" fill="black"/>
</svg>
