<svg width="24" height="24" viewBox="0 0 24 24" fill="none" xmlns="http://www.w3.org/2000/svg">
<path fill-rule="evenodd" clip-rule="evenodd" d="M12 2C9.51472 2 7.5 4.01472 7.5 6.5C7.5 8.98528 9.51472 11 12 11C14.4853 11 16.5 8.98528 16.5 6.5C16.5 4.01472 14.4853 2 12 2ZM9.5 6.5C9.5 5.11929 10.6193 4 12 4C13.3807 4 14.5 5.11929 14.5 6.5C14.5 7.88071 13.3807 9 12 9C10.6193 9 9.5 7.88071 9.5 6.5Z" fill="black"/>
<path fill-rule="evenodd" clip-rule="evenodd" d="M12 12.5C7.58172 12.5 4 16.0817 4 20.5V22H20V20.5C20 16.0817 16.4183 12.5 12 12.5ZM12 14.5C15.1453 14.5 17.7254 16.9202 17.9795 20H6.02054C6.27461 16.9202 8.85467 14.5 12 14.5Z" fill="black"/>
</svg>
