<svg width="24" height="24" viewBox="0 0 24 24" fill="none" xmlns="http://www.w3.org/2000/svg">
<path d="M11 9L11 13L15 13L15 11L13 11V9H11Z" fill="black"/>
<path fill-rule="evenodd" clip-rule="evenodd" d="M17 2H7.025V7.07563C5.7731 8.34033 5 10.0799 5 12C5 13.9201 5.7731 15.6597 7.025 16.9244V22H17V16.899C18.2372 15.6364 19 13.9073 19 12C19 10.0927 18.2372 8.36355 17 7.10102V2ZM9.025 16V16.019C9.85634 16.6354 10.8856 17 12 17C13.1256 17 14.1643 16.6281 15 16.0004V16H15.0005C16.2147 15.0878 17 13.6356 17 12C17 10.3644 16.2147 8.91223 15.0005 8H15V7.99963C14.1643 7.37194 13.1256 7 12 7C10.8856 7 9.85634 7.36458 9.025 7.98098V8H8.99951C7.78534 8.91223 7 10.3644 7 12C7 13.6356 7.78534 15.0878 8.99951 16H9.025ZM9.025 20V18.3382C9.92788 18.7627 10.9362 19 12 19C13.0736 19 14.0907 18.7583 15 18.3264V20H9.025ZM15 5.67363V4H9.025V5.66182C9.92788 5.23729 10.9362 5 12 5C13.0736 5 14.0907 5.24169 15 5.67363Z" fill="black"/>
</svg>
