<svg width="24" height="24" viewBox="0 0 24 24" fill="none" xmlns="http://www.w3.org/2000/svg">
<path d="M21.8995 9.44218C22.0085 9.55119 22.1153 9.66156 22.22 9.77322L20.8049 11.1883C20.7009 11.0761 20.5944 10.9655 20.4853 10.8564C15.799 6.1701 8.20101 6.1701 3.51472 10.8564C3.40563 10.9655 3.29908 11.0761 3.19508 11.1883L1.77998 9.77322C1.88465 9.66156 1.99149 9.55119 2.10051 9.44218C7.56785 3.97484 16.4322 3.97484 21.8995 9.44218Z" fill="black"/>
<path d="M19.0711 12.2706C19.1802 12.3798 19.2864 12.4909 19.3894 12.6037L17.9734 14.0198C17.8717 13.9059 17.7662 13.7942 17.6569 13.6848C14.5327 10.5606 9.46734 10.5606 6.34315 13.6848C6.23382 13.7942 6.12831 13.9059 6.02663 14.0198L4.61056 12.6037C4.71363 12.4909 4.81976 12.3798 4.92893 12.2706C8.83418 8.36536 15.1658 8.36536 19.0711 12.2706Z" fill="black"/>
<path d="M16.5561 15.4371C16.4567 15.3214 16.3522 15.2086 16.2426 15.099C13.8995 12.7559 10.1005 12.7559 7.75736 15.099C7.64776 15.2086 7.54328 15.3214 7.44393 15.4371L8.86438 16.8576C8.95901 16.7384 9.06141 16.6234 9.17157 16.5132C10.7337 14.9512 13.2663 14.9512 14.8284 16.5132C14.9386 16.6234 15.041 16.7384 15.1356 16.8576L16.5561 15.4371Z" fill="black"/>
<path d="M12 19.9932L13.7023 18.2909C13.6223 18.1617 13.5263 18.0396 13.4142 17.9275C12.6332 17.1464 11.3668 17.1464 10.5858 17.9275C10.4737 18.0396 10.3777 18.1617 10.2977 18.2909L12 19.9932Z" fill="black"/>
</svg>
