<svg width="24" height="24" viewBox="0 0 24 24" fill="none" xmlns="http://www.w3.org/2000/svg">
<path d="M6.69911 3.07759L3.42237 5.70283L2.79712 4.92241L6.07386 2.29716L6.69911 3.07759Z" fill="black"/>
<path d="M12.5 12.5H16.5V13.5H11.5L11.4999 8.5H12.4999L12.5 12.5Z" fill="black"/>
<path fill-rule="evenodd" clip-rule="evenodd" d="M3.49995 13C3.49995 8.30558 7.30553 4.5 12 4.5C16.6944 4.5 20.5 8.30558 20.5 13C20.5 17.6944 16.6944 21.5 12 21.5C7.30553 21.5 3.49995 17.6944 3.49995 13ZM12 5.5C7.85782 5.5 4.49995 8.85786 4.49995 13C4.49995 17.1421 7.85782 20.5 12 20.5C16.1421 20.5 19.5 17.1421 19.5 13C19.5 8.85786 16.1421 5.5 12 5.5Z" fill="black"/>
<path d="M20.5739 5.70283L17.2971 3.07759L17.9224 2.29716L21.1991 4.92241L20.5739 5.70283Z" fill="black"/>
</svg>
