<svg width="24" height="24" viewBox="0 0 24 24" fill="none" xmlns="http://www.w3.org/2000/svg">
<path fill-rule="evenodd" clip-rule="evenodd" d="M12 6.5C10.6193 6.5 9.5 7.61929 9.5 9C9.5 10.3807 10.6193 11.5 12 11.5C13.3807 11.5 14.5 10.3807 14.5 9C14.5 7.61929 13.3807 6.5 12 6.5ZM10.5 9C10.5 8.17157 11.1716 7.5 12 7.5C12.8284 7.5 13.5 8.17157 13.5 9C13.5 9.82843 12.8284 10.5 12 10.5C11.1716 10.5 10.5 9.82843 10.5 9Z" fill="black"/>
<path fill-rule="evenodd" clip-rule="evenodd" d="M5.5 9C5.5 5.41015 8.41015 2.5 12 2.5C15.5899 2.5 18.5 5.41015 18.5 9C18.5 10.8434 17.7327 12.5075 16.5 13.6904V21.7759L12 19.7342L7.5 21.7759V13.6904C6.26733 12.5075 5.5 10.8434 5.5 9ZM12.5 15.4811C13.599 15.3975 14.6216 15.0406 15.5 14.4782V20.2241L12.5 18.863V15.4811ZM8.5 14.4782C9.3784 15.0406 10.401 15.3975 11.5 15.4811V18.863L8.5 20.2241V14.4782ZM12 3.5C8.96243 3.5 6.5 5.96243 6.5 9C6.5 12.0376 8.96243 14.5 12 14.5C15.0376 14.5 17.5 12.0376 17.5 9C17.5 5.96243 15.0376 3.5 12 3.5Z" fill="black"/>
</svg>
