<svg width="24" height="24" viewBox="0 0 24 24" fill="none" xmlns="http://www.w3.org/2000/svg">
<path fill-rule="evenodd" clip-rule="evenodd" d="M11.9996 6.5C10.6189 6.5 9.49962 7.61929 9.49962 9C9.49962 10.3807 10.6189 11.5 11.9996 11.5C13.3803 11.5 14.4996 10.3807 14.4996 9C14.4996 7.61929 13.3803 6.5 11.9996 6.5ZM10.4996 9C10.4996 8.17157 11.1712 7.5 11.9996 7.5C12.828 7.5 13.4996 8.17157 13.4996 9C13.4996 9.82843 12.828 10.5 11.9996 10.5C11.1712 10.5 10.4996 9.82843 10.4996 9Z" fill="black"/>
<path fill-rule="evenodd" clip-rule="evenodd" d="M11.9996 2.5C8.40977 2.5 5.49962 5.41015 5.49962 9C5.49962 10.0786 5.76234 11.0959 6.22729 11.9913L2.97864 17.6181L6.80371 17.9929L9.04082 21.1181L11.9977 15.9966L14.9546 21.1181L17.1917 17.9929L21.0167 17.6181L17.7701 11.9948C18.2362 11.0985 18.4996 10.08 18.4996 9C18.4996 5.41015 15.5895 2.5 11.9996 2.5ZM4.62057 16.7742L6.83217 12.9436C7.85965 14.2879 9.3998 15.2195 11.1607 15.4464L8.9507 19.2742L7.35276 17.0419L4.62057 16.7742ZM17.1649 12.9465C16.1367 14.2901 14.5961 15.2209 12.8349 15.4468L15.0447 19.2742L16.6426 17.0419L19.3748 16.7742L17.1649 12.9465ZM6.49962 9C6.49962 5.96243 8.96205 3.5 11.9996 3.5C15.0372 3.5 17.4996 5.96243 17.4996 9C17.4996 12.0376 15.0372 14.5 11.9996 14.5C8.96205 14.5 6.49962 12.0376 6.49962 9Z" fill="black"/>
</svg>
