<svg width="24" height="24" viewBox="0 0 24 24" fill="none" xmlns="http://www.w3.org/2000/svg">
<path fill-rule="evenodd" clip-rule="evenodd" d="M12 2.5C7.85786 2.5 4.5 5.85786 4.5 10V13.382L3.5 15.382V18H8.5V18.25C8.5 20.183 10.067 21.75 12 21.75C13.933 21.75 15.5 20.183 15.5 18.25V18H20.5V15.382L19.5 13.382V10C19.5 5.85786 16.1421 2.5 12 2.5ZM9.5 18V18.25C9.5 19.6307 10.6193 20.75 12 20.75C13.3807 20.75 14.5 19.6307 14.5 18.25V18H9.5ZM5.5 10C5.5 6.41015 8.41015 3.5 12 3.5C15.5899 3.5 18.5 6.41015 18.5 10V13.618L19.5 15.618V17H4.5V15.618L5.5 13.618V10Z" fill="black"/>
</svg>
