<svg width="24" height="24" viewBox="0 0 24 24" fill="none" xmlns="http://www.w3.org/2000/svg">
<path fill-rule="evenodd" clip-rule="evenodd" d="M12 8.5C9.51472 8.5 7.5 10.5147 7.5 13C7.5 15.4853 9.51472 17.5 12 17.5C14.4853 17.5 16.5 15.4853 16.5 13C16.5 10.5147 14.4853 8.5 12 8.5ZM8.5 13C8.5 11.067 10.067 9.5 12 9.5C13.933 9.5 15.5 11.067 15.5 13C15.5 14.933 13.933 16.5 12 16.5C10.067 16.5 8.5 14.933 8.5 13Z" fill="black"/>
<path fill-rule="evenodd" clip-rule="evenodd" d="M15.309 3H8.69098L6.69098 7H2.5V21H21.5V7H17.309L15.309 3ZM7.30902 8L9.30902 4H14.691L16.691 8H20.5V20H3.5V8H7.30902Z" fill="black"/>
</svg>
