<svg width="24" height="24" viewBox="0 0 24 24" fill="none" xmlns="http://www.w3.org/2000/svg">
<path fill-rule="evenodd" clip-rule="evenodd" d="M2 2.5H5.36038L6.36038 5.5H21.8487L16.3071 15.5H9.25L7.12482 18.3336C7.26729 18.5317 7.37442 18.7569 7.43699 19H16.563C16.785 18.1374 17.5681 17.5 18.5 17.5C19.6046 17.5 20.5 18.3954 20.5 19.5C20.5 20.6046 19.6046 21.5 18.5 21.5C17.5681 21.5 16.785 20.8626 16.563 20H7.43699C7.21497 20.8626 6.43192 21.5 5.5 21.5C4.39543 21.5 3.5 20.6046 3.5 19.5C3.5 18.3954 4.39543 17.5 5.5 17.5C5.80631 17.5 6.09653 17.5689 6.35604 17.6919L8.44281 14.9096L4.63962 3.5H2V2.5ZM9.36038 14.5H15.7179L20.1513 6.5H6.69371L9.36038 14.5ZM18.5 18.5C17.9477 18.5 17.5 18.9477 17.5 19.5C17.5 20.0523 17.9477 20.5 18.5 20.5C19.0523 20.5 19.5 20.0523 19.5 19.5C19.5 18.9477 19.0523 18.5 18.5 18.5ZM4.5 19.5C4.5 18.9477 4.94772 18.5 5.5 18.5C6.05228 18.5 6.5 18.9477 6.5 19.5C6.5 20.0523 6.05228 20.5 5.5 20.5C4.94772 20.5 4.5 20.0523 4.5 19.5Z" fill="black"/>
</svg>
