<svg width="24" height="24" viewBox="0 0 24 24" fill="none" xmlns="http://www.w3.org/2000/svg">
<path fill-rule="evenodd" clip-rule="evenodd" d="M2.5 12C2.5 6.7533 6.7533 2.5 12 2.5C17.2467 2.5 21.5 6.7533 21.5 12C21.5 14.6232 20.4361 16.9989 18.7175 18.7175C16.9989 20.4361 14.6232 21.5 12 21.5C6.7533 21.5 2.5 17.2467 2.5 12ZM11.5 3.51446C7.03831 3.77327 3.5 7.47343 3.5 12C3.5 16.6944 7.30558 20.5 12 20.5C14.1675 20.5 16.1448 19.6893 17.6465 18.3536L11.5 12.2071V3.51446ZM12.5 3.51446V11.5H20.4855C20.2363 7.20375 16.7962 3.76367 12.5 3.51446ZM20.4855 12.5H13.2071L18.3536 17.6465C19.5859 16.2611 20.3713 14.4709 20.4855 12.5Z" fill="black"/>
</svg>
