<svg width="24" height="24" viewBox="0 0 24 24" fill="none" xmlns="http://www.w3.org/2000/svg">
<path d="M12.7071 12L15.5355 14.8284L14.8284 15.5355L12 12.7071L9.17156 15.5355L8.46445 14.8284L11.2929 12L8.46445 9.17156L9.17156 8.46445L12 11.2929L14.8284 8.46445L15.5355 9.17156L12.7071 12Z" fill="black"/>
<path fill-rule="evenodd" clip-rule="evenodd" d="M2.5 12C2.5 6.7533 6.7533 2.5 12 2.5C17.2467 2.5 21.5 6.7533 21.5 12C21.5 17.2467 17.2467 21.5 12 21.5C6.7533 21.5 2.5 17.2467 2.5 12ZM12 3.5C7.30558 3.5 3.5 7.30558 3.5 12C3.5 16.6944 7.30558 20.5 12 20.5C16.6944 20.5 20.5 16.6944 20.5 12C20.5 7.30558 16.6944 3.5 12 3.5Z" fill="black"/>
</svg>
