<svg width="24" height="24" viewBox="0 0 24 24" fill="none" xmlns="http://www.w3.org/2000/svg">
<path d="M11.375 3.5C9.03603 3.5 7.08074 5.14772 6.60867 7.3461L6.55282 7.60622L6.30587 7.70522C5.24663 8.12985 4.5 9.16584 4.5 10.375C4.5 11.9628 5.78718 13.25 7.375 13.25C7.92278 13.25 8.43337 13.0973 8.86823 12.8324L9.09569 12.6938L9.33758 12.8053C9.70275 12.9735 10.0924 13.098 10.5 13.1718V14.1852C10.0323 14.1153 9.58224 13.9902 9.15697 13.8167C8.62312 14.0936 8.01674 14.25 7.375 14.25C5.2349 14.25 3.5 12.5151 3.5 10.375C3.5 8.83769 4.39506 7.51051 5.69093 6.88423C6.3509 4.36158 8.64501 2.5 11.375 2.5C13.1366 2.5 14.7174 3.27587 15.7935 4.50286C18.4079 4.59165 20.5 6.739 20.5 9.375C20.5 12.0674 18.3174 14.25 15.625 14.25C14.9048 14.25 14.22 14.0935 13.6037 13.8124C13.5693 13.8265 13.5347 13.8403 13.5 13.8538V12.765L13.6287 12.706L13.8455 12.8182C14.3778 13.094 14.9825 13.25 15.625 13.25C17.7651 13.25 19.5 11.5151 19.5 9.375C19.5 7.2349 17.7651 5.5 15.625 5.5C15.6054 5.5 15.5859 5.50015 15.5663 5.50043L15.3229 5.50404L15.1699 5.31463C14.2755 4.20699 12.908 3.5 11.375 3.5Z" fill="black"/>
<path d="M12.5 9.5V19.7928L14.625 17.6679L15.3321 18.375L12 21.7071L8.66787 18.375L9.37498 17.6679L11.5 19.7929V9.5H12.5Z" fill="black"/>
</svg>
