<svg width="24" height="24" viewBox="0 0 24 24" fill="none" xmlns="http://www.w3.org/2000/svg">
<path d="M12 11C11.4477 11 11 11.4477 11 12C11 12.5523 11.4477 13 12 13C12.5523 13 13 12.5523 13 12C13 11.4477 12.5523 11 12 11Z" fill="black"/>
<path fill-rule="evenodd" clip-rule="evenodd" d="M12.5 2.5V4.5164C16.2438 4.76282 19.2372 7.75625 19.4836 11.5H21.5V12.5H19.4836C19.2372 16.2438 16.2438 19.2372 12.5 19.4836V21.5H11.5V19.4836C7.75625 19.2372 4.76282 16.2438 4.5164 12.5H2.5V11.5H4.5164C4.76282 7.75625 7.75625 4.76282 11.5 4.5164V2.5H12.5ZM5.51894 12.5H7.5V11.5H5.51894C5.7617 8.3088 8.3088 5.7617 11.5 5.51894V7.5H12.5V5.51894C15.6912 5.7617 18.2383 8.3088 18.4811 11.5H16.5V12.5H18.4811C18.2383 15.6912 15.6912 18.2383 12.5 18.4811V16.5H11.5V18.4811C8.3088 18.2383 5.7617 15.6912 5.51894 12.5Z" fill="black"/>
</svg>
