<svg width="24" height="24" viewBox="0 0 24 24" fill="none" xmlns="http://www.w3.org/2000/svg">
<path fill-rule="evenodd" clip-rule="evenodd" d="M12 2.5C6.7533 2.5 2.5 6.7533 2.5 12C2.5 17.2467 6.7533 21.5 12 21.5C17.2467 21.5 21.5 17.2467 21.5 12C21.5 6.7533 17.2467 2.5 12 2.5ZM4.39992 8.18944C3.82414 9.33558 3.5 10.6299 3.5 12C3.5 12.8701 3.63072 13.7096 3.8736 14.5L9.55001 14.5C9.74885 13.5204 10.5204 12.7489 11.5 12.55V8H12.5V12.55C13.4796 12.7489 14.2512 13.5204 14.45 14.5H20.1264C20.3693 13.7096 20.5 12.8701 20.5 12C20.5 10.6299 20.1759 9.33559 19.6001 8.18945L18.0957 9.05802L17.5957 8.19199L19.0993 7.32388C17.6648 5.1504 15.2589 3.6745 12.5 3.51446V5.25H11.5V3.51446C8.74108 3.6745 6.33522 5.15039 4.90071 7.32387L6.40432 8.19198L5.90432 9.05801L4.39992 8.18944ZM14.45 15.5C14.2184 16.6411 13.2095 17.5 12 17.5C10.7905 17.5 9.78164 16.6411 9.55001 15.5H4.25174C5.58573 18.4485 8.55329 20.5 12 20.5C15.4467 20.5 18.4143 18.4485 19.7483 15.5H14.45ZM10.5 15C10.5 14.1716 11.1716 13.5 12 13.5C12.8284 13.5 13.5 14.1716 13.5 15C13.5 15.8284 12.8284 16.5 12 16.5C11.1716 16.5 10.5 15.8284 10.5 15Z" fill="black"/>
</svg>
