<svg width="24" height="24" viewBox="0 0 24 24" fill="none" xmlns="http://www.w3.org/2000/svg">
<path d="M2.5 10.5H5.5V13.5H2.5V14.5H5.51894C5.77426 17.8562 8.57838 20.5 12 20.5C14.2614 20.5 16.2527 19.3448 17.4164 17.5946L16.5836 17.041C15.5974 18.5242 13.9126 19.5 12 19.5C9.13098 19.5 6.77504 17.3033 6.52242 14.5H12.5V13.5H6.5V10.5H12.5V9.5H6.52242C6.77504 6.69675 9.13098 4.5 12 4.5C13.9126 4.5 15.5974 5.47581 16.5836 6.95904L17.4164 6.40537C16.2527 4.65521 14.2614 3.5 12 3.5C8.57839 3.5 5.77426 6.14378 5.51894 9.5H2.5V10.5Z" fill="black"/>
</svg>
