<svg width="24" height="24" viewBox="0 0 24 24" fill="none" xmlns="http://www.w3.org/2000/svg">
<path fill-rule="evenodd" clip-rule="evenodd" d="M3.24998 3.79288L6.04249 6.58539C7.47027 5.40996 9.41375 4.50001 12 4.50001C15.6939 4.50001 18.0765 6.3563 19.5181 8.19109C20.2365 9.10542 20.7248 10.0174 21.0337 10.7002C21.1884 11.0422 21.2989 11.3284 21.3713 11.5311C21.4075 11.6324 21.4342 11.713 21.4522 11.7694C21.4612 11.7976 21.468 11.8198 21.4727 11.8354C21.4734 11.8379 21.4741 11.8402 21.4748 11.8423L21.4758 11.8457C21.4767 11.8489 21.4776 11.8517 21.4783 11.8541C21.4789 11.8563 21.4795 11.8582 21.4799 11.8596L21.4806 11.8621C21.4807 11.8624 21.4807 11.8626 21 12C21.4807 12.1374 21.4807 12.1376 21.4806 12.1379L21.4799 12.1404C21.4795 12.1418 21.4789 12.1437 21.4783 12.146C21.4778 12.1477 21.4772 12.1496 21.4765 12.1517L21.4748 12.1576L21.4737 12.1614L21.4727 12.1646C21.468 12.1802 21.4612 12.2024 21.4522 12.2306C21.4342 12.287 21.4075 12.3676 21.3713 12.469C21.2989 12.6716 21.1884 12.9578 21.0337 13.2998C20.7248 13.9826 20.2365 14.8946 19.5181 15.8089C18.9472 16.5356 18.2286 17.2656 17.3395 17.8824L19.9571 20.5L19.25 21.2071L16.4627 18.4198C16.4604 18.4211 16.458 18.4223 16.4557 18.4236L15.7125 17.6804C15.7149 17.6792 15.7173 17.678 15.7197 17.6768L6.00989 7.967C6.0081 7.96881 6.00631 7.97062 6.00452 7.97242L5.29765 7.26555C5.29944 7.26374 5.30123 7.26194 5.30302 7.26013L2.54287 4.49998L3.24998 3.79288ZM18.7318 15.1911C18.1807 15.8925 17.4862 16.59 16.6197 17.1626L13.8548 14.3977L14.157 14.085C14.6784 13.5457 15 12.8099 15 12C15 10.3432 13.6569 9.00001 12 9.00001C11.1901 9.00001 10.4543 9.32161 9.91499 9.84301L9.60236 10.1453L6.75295 7.29585C8.02456 6.27301 9.73275 5.50001 12 5.50001C15.3061 5.50001 17.4235 7.14371 18.7318 8.80892C19.3884 9.64459 19.8377 10.4826 20.1226 11.1123C20.2647 11.4266 20.3652 11.6872 20.4295 11.8674C20.4477 11.9183 20.4629 11.9627 20.4755 12C20.4629 12.0373 20.4477 12.0817 20.4295 12.1326C20.3652 12.3128 20.2647 12.5734 20.1226 12.8877C19.8377 13.5174 19.3884 14.3554 18.7318 15.1911ZM13.4381 13.39L13.1476 13.6905L10.3096 10.8525L10.6101 10.5619C10.9704 10.2136 11.4598 10 12 10C13.1046 10 14 10.8954 14 12C14 12.5403 13.7865 13.0296 13.4381 13.39Z" fill="black"/>
<path d="M4.6275 8.00961C4.57791 8.07009 4.52936 8.1306 4.48183 8.19109C3.76343 9.10542 3.27519 10.0174 2.96631 10.7002C2.81159 11.0422 2.7011 11.3284 2.62873 11.5311C2.59252 11.6324 2.5658 11.713 2.54781 11.7694C2.53882 11.7976 2.532 11.8198 2.52727 11.8354C2.5249 11.8433 2.52306 11.8495 2.52172 11.8541C2.52105 11.8563 2.52051 11.8582 2.5201 11.8596L2.51957 11.8615L2.51937 11.8621C2.5193 11.8624 2.51923 11.8626 2.99999 12L2.51923 11.8626L2.47998 12L2.51923 12.1374L2.99999 12C2.51923 12.1374 2.5193 12.1376 2.51937 12.1379L2.51957 12.1386L2.5201 12.1404C2.52051 12.1418 2.52105 12.1437 2.52172 12.146C2.52306 12.1505 2.5249 12.1567 2.52727 12.1646C2.532 12.1802 2.53882 12.2024 2.54781 12.2306C2.5658 12.287 2.59252 12.3676 2.62873 12.469C2.7011 12.6716 2.81159 12.9578 2.96631 13.2998C3.27519 13.9826 3.76343 14.8946 4.48183 15.8089C5.92345 17.6437 8.30611 19.5 12 19.5C13.3257 19.5 14.4824 19.2609 15.4874 18.8696L14.7049 18.087C13.9068 18.347 13.0087 18.5 12 18.5C8.69387 18.5 6.57652 16.8563 5.26815 15.1911C4.61155 14.3554 4.16229 13.5174 3.87742 12.8877C3.73526 12.5734 3.63481 12.3128 3.57047 12.1326C3.5523 12.0817 3.53703 12.0373 3.52452 12C3.53703 11.9627 3.5523 11.9183 3.57047 11.8674C3.63481 11.6872 3.73526 11.4266 3.87742 11.1123C4.16229 10.4826 4.61155 9.64459 5.26815 8.80892C5.29131 8.77944 5.31473 8.74997 5.3384 8.72051L4.6275 8.00961Z" fill="black"/>
<path d="M21 12L21.4807 11.8626L21.52 12L21.4807 12.1374L21 12Z" fill="black"/>
</svg>
