<svg width="24" height="24" viewBox="0 0 24 24" fill="none" xmlns="http://www.w3.org/2000/svg">
<path fill-rule="evenodd" clip-rule="evenodd" d="M12 9C10.3431 9 9 10.3431 9 12C9 13.6569 10.3431 15 12 15C13.6569 15 15 13.6569 15 12C15 10.3431 13.6569 9 12 9ZM10 12C10 10.8954 10.8954 10 12 10C13.1046 10 14 10.8954 14 12C14 13.1046 13.1046 14 12 14C10.8954 14 10 13.1046 10 12Z" fill="black"/>
<path fill-rule="evenodd" clip-rule="evenodd" d="M12 4.5C8.30611 4.5 5.92345 6.3563 4.48183 8.19109C3.76343 9.10541 3.27519 10.0174 2.96631 10.7002C2.81159 11.0422 2.7011 11.3284 2.62873 11.5311C2.59252 11.6324 2.5658 11.713 2.54781 11.7694C2.53882 11.7976 2.532 11.8198 2.52727 11.8354C2.5249 11.8433 2.52306 11.8495 2.52172 11.854C2.52105 11.8563 2.52051 11.8582 2.5201 11.8596L2.51957 11.8614L2.51937 11.8621C2.5193 11.8624 2.51923 11.8626 2.99999 12L2.51923 11.8626L2.47998 12L2.51923 12.1374L2.99999 12C2.51923 12.1374 2.5193 12.1376 2.51937 12.1379L2.51957 12.1386L2.5201 12.1404C2.52051 12.1418 2.52105 12.1437 2.52172 12.1459C2.52306 12.1505 2.5249 12.1567 2.52727 12.1646C2.532 12.1802 2.53882 12.2024 2.54781 12.2306C2.5658 12.287 2.59252 12.3676 2.62873 12.4689C2.7011 12.6716 2.81159 12.9578 2.96631 13.2998C3.27519 13.9826 3.76343 14.8946 4.48183 15.8089C5.92345 17.6437 8.30611 19.5 12 19.5C15.6939 19.5 18.0765 17.6437 19.5181 15.8089C20.2365 14.8946 20.7248 13.9826 21.0337 13.2998C21.1884 12.9578 21.2989 12.6716 21.3713 12.4689C21.4075 12.3676 21.4342 12.287 21.4522 12.2306C21.4612 12.2024 21.468 12.1802 21.4727 12.1646C21.4751 12.1567 21.4769 12.1505 21.4783 12.1459C21.4789 12.1437 21.4795 12.1418 21.4799 12.1404L21.4806 12.1379C21.4807 12.1376 21.4807 12.1374 21 12L21.4807 12.1374L21.52 12L21.4807 11.8626L21 12C21.4807 11.8626 21.4807 11.8624 21.4806 11.8621L21.4799 11.8596L21.4788 11.8558L21.4783 11.854C21.4776 11.8517 21.4767 11.8489 21.4758 11.8457C21.4749 11.8427 21.4739 11.8392 21.4727 11.8354C21.468 11.8198 21.4612 11.7976 21.4522 11.7694C21.4342 11.713 21.4075 11.6324 21.3713 11.5311C21.2989 11.3284 21.1884 11.0422 21.0337 10.7002C20.7248 10.0174 20.2365 9.10541 19.5181 8.19109C18.0765 6.3563 15.6939 4.5 12 4.5ZM3.57047 12.1326C3.5523 12.0817 3.53703 12.0373 3.52452 12C3.53703 11.9627 3.5523 11.9183 3.57047 11.8674C3.63481 11.6872 3.73526 11.4266 3.87742 11.1123C4.16229 10.4826 4.61155 9.64459 5.26815 8.80891C6.57652 7.1437 8.69387 5.5 12 5.5C15.3061 5.5 17.4235 7.1437 18.7318 8.80891C19.3884 9.64459 19.8377 10.4826 20.1226 11.1123C20.2647 11.4266 20.3652 11.6872 20.4295 11.8674C20.4477 11.9183 20.4629 11.9627 20.4755 12C20.4629 12.0373 20.4477 12.0817 20.4295 12.1326C20.3652 12.3128 20.2647 12.5734 20.1226 12.8877C19.8377 13.5174 19.3884 14.3554 18.7318 15.1911C17.4235 16.8563 15.3061 18.5 12 18.5C8.69387 18.5 6.57652 16.8563 5.26815 15.1911C4.61155 14.3554 4.16229 13.5174 3.87742 12.8877C3.73526 12.5734 3.63481 12.3128 3.57047 12.1326Z" fill="black"/>
</svg>
