<svg width="24" height="24" viewBox="0 0 24 24" fill="none" xmlns="http://www.w3.org/2000/svg">
<path d="M8 10H6.5V11H8V12.5H9V11H10.5V10H9V8.5H8V10Z" fill="black"/>
<path d="M14.4394 8.73223L15.5 9.79287L16.5607 8.73222L17.2678 9.43932L16.2071 10.5L17.2678 11.5607L16.5607 12.2678L15.5 11.2071L14.4393 12.2678L13.7322 11.5606L14.7929 10.5L13.7322 9.43933L14.4394 8.73223Z" fill="black"/>
<path fill-rule="evenodd" clip-rule="evenodd" d="M12.5 4.5V2H11.5V4.5H2.5V20.5H6.82268L10.4227 16.5H13.5773L17.1773 20.5H21.5V4.5H12.5ZM3.5 19.5V5.5H20.5V19.5H17.6227L14.0227 15.5H9.97732L6.37732 19.5H3.5Z" fill="black"/>
</svg>
