<svg width="24" height="24" viewBox="0 0 24 24" fill="none" xmlns="http://www.w3.org/2000/svg">
<path fill-rule="evenodd" clip-rule="evenodd" d="M12 9.00001C10.3431 9.00001 8.99998 10.3432 8.99998 12C8.99998 13.6569 10.3431 15 12 15C13.6568 15 15 13.6569 15 12C15 10.3432 13.6568 9.00001 12 9.00001ZM9.99998 12C9.99998 10.8954 10.8954 10 12 10C13.1045 10 14 10.8954 14 12C14 13.1046 13.1045 14 12 14C10.8954 14 9.99998 13.1046 9.99998 12Z" fill="black"/>
<path fill-rule="evenodd" clip-rule="evenodd" d="M14.8431 5.13602L12 2.29288L9.15681 5.13602H5.13599V9.15685L2.29285 12L5.13599 14.8431V18.864H9.15681L12 21.7071L14.8431 18.864H18.8639V14.8431L21.7071 12L18.8639 9.15684V5.13602H14.8431ZM9.57103 6.13602L12 3.70709L14.4289 6.13602H17.8639V9.57105L20.2929 12L17.8639 14.4289V17.8639H14.4289L12 20.2929L9.57102 17.8639H6.13599V14.4289L3.70706 12L6.13599 9.57106V6.13602H9.57103Z" fill="black"/>
</svg>
