<svg width="24" height="24" viewBox="0 0 24 24" fill="none" xmlns="http://www.w3.org/2000/svg">
<path fill-rule="evenodd" clip-rule="evenodd" d="M12 8.99979C10.3431 8.99979 8.99998 10.3429 8.99998 11.9998C8.99998 13.6566 10.3431 14.9998 12 14.9998C13.6568 14.9998 15 13.6566 15 11.9998C15 10.3429 13.6568 8.99979 12 8.99979ZM9.99998 11.9998C9.99998 10.8952 10.8954 9.99979 12 9.99979C13.1045 9.99979 14 10.8952 14 11.9998C14 13.1044 13.1045 13.9998 12 13.9998C10.8954 13.9998 9.99998 13.1044 9.99998 11.9998Z" fill="black"/>
<path fill-rule="evenodd" clip-rule="evenodd" d="M12 2.29268L2.29285 11.9998L12 21.7069L21.7071 11.9998L12 2.29268ZM12 20.2927L3.70706 11.9998L12 3.70689L20.2929 11.9998L12 20.2927Z" fill="black"/>
</svg>
