<svg width="24" height="24" viewBox="0 0 24 24" fill="none" xmlns="http://www.w3.org/2000/svg">
<path fill-rule="evenodd" clip-rule="evenodd" d="M14.5 1.5C13.4565 1.5 12.5375 2.03275 12 2.8411C11.4625 2.03275 10.5435 1.5 9.5 1.5C7.84315 1.5 6.5 2.84315 6.5 4.5C6.5 5.26835 6.78885 5.96924 7.26389 6.5H2.5V13.5H3.5V21.5H20.5V13.5H21.5V6.5H16.7361C17.2111 5.96924 17.5 5.26835 17.5 4.5C17.5 2.84315 16.1569 1.5 14.5 1.5ZM9.5 2.5C10.6046 2.5 11.5 3.39543 11.5 4.5C11.5 5.60457 10.6046 6.5 9.5 6.5C8.39543 6.5 7.5 5.60457 7.5 4.5C7.5 3.39543 8.39543 2.5 9.5 2.5ZM3.5 12.5V7.5H11.5V12.5H3.5ZM14.5 6.5C15.6046 6.5 16.5 5.60457 16.5 4.5C16.5 3.39543 15.6046 2.5 14.5 2.5C13.3954 2.5 12.5 3.39543 12.5 4.5C12.5 5.60457 13.3954 6.5 14.5 6.5ZM12.5 7.5V12.5H20.5V7.5H12.5ZM12.5 13.5H19.5V20.5H12.5V13.5ZM4.5 13.5H11.5V20.5H4.5V13.5Z" fill="black"/>
</svg>
