<svg width="24" height="24" viewBox="0 0 24 24" fill="none" xmlns="http://www.w3.org/2000/svg">
<path fill-rule="evenodd" clip-rule="evenodd" d="M12 7C10.3431 7 9 8.34315 9 10C9 11.6569 10.3431 13 12 13C13.6569 13 15 11.6569 15 10C15 8.34315 13.6569 7 12 7ZM10 10C10 8.89543 10.8954 8 12 8C13.1046 8 14 8.89543 14 10C14 11.1046 13.1046 12 12 12C10.8954 12 10 11.1046 10 10Z" fill="black"/>
<path fill-rule="evenodd" clip-rule="evenodd" d="M12 2.5C7.85786 2.5 4.5 5.85786 4.5 10C4.5 11.3611 4.97428 12.7554 5.64987 14.0583C6.32772 15.3656 7.2257 16.6142 8.11404 17.6929C9.00359 18.773 9.89175 19.6928 10.557 20.3422C10.8899 20.6672 11.1678 20.9252 11.3631 21.1026C11.4607 21.1913 11.5378 21.2598 11.5909 21.3066C11.6174 21.3299 11.6379 21.3479 11.652 21.3601C11.6591 21.3662 11.6645 21.3709 11.6683 21.3742L11.6727 21.378L11.6744 21.3794C11.6745 21.3795 11.6746 21.3796 12 21L11.6746 21.3796L12 21.6585L12.3254 21.3796L12 21C12.3254 21.3796 12.3255 21.3795 12.3256 21.3794L12.3273 21.378L12.3317 21.3742C12.3355 21.3709 12.3409 21.3662 12.348 21.3601C12.3621 21.3479 12.3826 21.3299 12.4091 21.3066C12.4622 21.2598 12.5393 21.1913 12.6369 21.1026C12.8322 20.9252 13.1101 20.6672 13.443 20.3422C14.1083 19.6928 14.9964 18.773 15.886 17.6929C16.7743 16.6142 17.6723 15.3656 18.3501 14.0583C19.0257 12.7554 19.5 11.3611 19.5 10C19.5 5.85786 16.1421 2.5 12 2.5ZM12.7445 19.6266C12.441 19.9229 12.1853 20.1611 12 20.3301C11.8147 20.1611 11.559 19.9229 11.2555 19.6266C10.6083 18.9947 9.74641 18.102 8.88596 17.0571C8.0243 16.0108 7.17228 14.8219 6.53763 13.598C5.90072 12.3696 5.5 11.1389 5.5 10C5.5 6.41015 8.41015 3.5 12 3.5C15.5899 3.5 18.5 6.41015 18.5 10C18.5 11.1389 18.0993 12.3696 17.4624 13.598C16.8277 14.8219 15.9757 16.0108 15.114 17.0571C14.2536 18.102 13.3917 18.9947 12.7445 19.6266Z" fill="black"/>
</svg>
