<svg width="24" height="24" viewBox="0 0 24 24" fill="none" xmlns="http://www.w3.org/2000/svg">
<path d="M6.5 10.5H15.5V11.5H6.5V10.5Z" fill="black"/>
<path fill-rule="evenodd" clip-rule="evenodd" d="M2.5 11C2.5 6.30558 6.30558 2.5 11 2.5C15.6944 2.5 19.5 6.30558 19.5 11C19.5 13.1673 18.6889 15.1451 17.3536 16.6465L21.7071 21L21 21.7071L16.6465 17.3536C15.1451 18.6889 13.1673 19.5 11 19.5C6.30558 19.5 2.5 15.6944 2.5 11ZM11 3.5C6.85786 3.5 3.5 6.85786 3.5 11C3.5 15.1421 6.85786 18.5 11 18.5C15.1421 18.5 18.5 15.1421 18.5 11C18.5 6.85786 15.1421 3.5 11 3.5Z" fill="black"/>
</svg>
