<svg width="24" height="24" viewBox="0 0 24 24" fill="none" xmlns="http://www.w3.org/2000/svg">
<path d="M15.5 10.5H11.5V6.5H10.5V10.5H6.5V11.5H10.5V15.5H11.5V11.5H15.5V10.5Z" fill="black"/>
<path fill-rule="evenodd" clip-rule="evenodd" d="M11 2.5C6.30558 2.5 2.5 6.30558 2.5 11C2.5 15.6944 6.30558 19.5 11 19.5C13.1673 19.5 15.1451 18.6889 16.6465 17.3536L21 21.7071L21.7071 21L17.3536 16.6465C18.6889 15.1451 19.5 13.1673 19.5 11C19.5 6.30558 15.6944 2.5 11 2.5ZM3.5 11C3.5 6.85786 6.85786 3.5 11 3.5C15.1421 3.5 18.5 6.85786 18.5 11C18.5 15.1421 15.1421 18.5 11 18.5C6.85786 18.5 3.5 15.1421 3.5 11Z" fill="black"/>
</svg>
