<svg width="24" height="24" viewBox="0 0 24 24" fill="none" xmlns="http://www.w3.org/2000/svg">
<path fill-rule="evenodd" clip-rule="evenodd" d="M12 4.5C7.85786 4.5 4.5 7.85786 4.5 12C4.5 16.1421 7.85786 19.5 12 19.5C15.3719 19.5 18.2241 17.2748 19.1682 14.2128C18.1652 15.2237 16.7747 15.85 15.2375 15.85C12.1792 15.85 9.7 13.3708 9.7 10.3125C9.7 7.57737 11.683 5.30539 14.2897 4.8558C13.5681 4.62474 12.7988 4.5 12 4.5ZM3.5 12C3.5 7.30558 7.30558 3.5 12 3.5C13.8268 3.5 15.5204 4.07687 16.9066 5.05833L16.4809 5.94735C16.0864 5.8352 15.6694 5.775 15.2375 5.775C12.7315 5.775 10.7 7.80651 10.7 10.3125C10.7 12.8185 12.7315 14.85 15.2375 14.85C17.2235 14.85 18.9127 13.5738 19.5273 11.7953L20.4999 11.9561C20.5 11.9707 20.5 11.9854 20.5 12C20.5 16.6944 16.6944 20.5 12 20.5C7.30558 20.5 3.5 16.6944 3.5 12Z" fill="black"/>
</svg>
