<svg width="24" height="24" viewBox="0 0 24 24" fill="none" xmlns="http://www.w3.org/2000/svg">
<path fill-rule="evenodd" clip-rule="evenodd" d="M20.5 2.45659V17.5C20.5 19.1569 19.1569 20.5 17.5 20.5C15.8431 20.5 14.5 19.1569 14.5 17.5C14.5 15.8431 15.8431 14.5 17.5 14.5C18.2684 14.5 18.9692 14.7888 19.5 15.2639V8.54339L8.5 9.46005V18.5C8.5 20.1569 7.15685 21.5 5.5 21.5C3.84315 21.5 2.5 20.1569 2.5 18.5C2.5 16.8431 3.84315 15.5 5.5 15.5C6.26835 15.5 6.96924 15.7888 7.5 16.2639V3.53992L20.5 2.45659ZM19.5 17.5C19.5 16.3954 18.6046 15.5 17.5 15.5C16.3954 15.5 15.5 16.3954 15.5 17.5C15.5 18.6046 16.3954 19.5 17.5 19.5C18.6046 19.5 19.5 18.6046 19.5 17.5ZM5.5 16.5C6.60457 16.5 7.5 17.3954 7.5 18.5C7.5 19.6046 6.60457 20.5 5.5 20.5C4.39543 20.5 3.5 19.6046 3.5 18.5C3.5 17.3954 4.39543 16.5 5.5 16.5ZM8.5 8.45659L19.5 7.53992V3.54339L8.5 4.46005V8.45659Z" fill="black"/>
</svg>
