<svg width="24" height="24" viewBox="0 0 24 24" fill="none" xmlns="http://www.w3.org/2000/svg">
<path fill-rule="evenodd" clip-rule="evenodd" d="M19.5 8.44751V2.44136L9.5 3.55247V16.2639C8.96924 15.7889 8.26835 15.5 7.5 15.5C5.84315 15.5 4.5 16.8431 4.5 18.5C4.5 20.1569 5.84315 21.5 7.5 21.5C9.15685 21.5 10.5 20.1569 10.5 18.5V9.44752L19.5 8.44751ZM9.5 18.5C9.5 17.3954 8.60457 16.5 7.5 16.5C6.39543 16.5 5.5 17.3954 5.5 18.5C5.5 19.6046 6.39543 20.5 7.5 20.5C8.60457 20.5 9.5 19.6046 9.5 18.5ZM18.5 7.55247L10.5 8.44136V4.44751L18.5 3.55863V7.55247Z" fill="black"/>
</svg>
