<svg width="24" height="24" viewBox="0 0 24 24" fill="none" xmlns="http://www.w3.org/2000/svg">
<path fill-rule="evenodd" clip-rule="evenodd" d="M5.08353 11.2554C7.37857 14.0604 9.94769 16.6295 12.7527 18.9246L13.4725 19.5134C14.8641 20.6521 16.8922 20.5509 18.1637 19.2795L20.2002 17.2429L16.3111 13.3539L13.6594 16.0055L7.99256 10.3386L10.6531 7.69583L6.76515 3.80792L4.72864 5.84442C3.45717 7.11589 3.35602 9.14395 4.49467 10.5356L5.08353 11.2554ZM12.1195 19.6985C9.26299 17.3614 6.64673 14.7451 4.30957 11.8886L3.72071 11.1689C2.25674 9.37957 2.38679 6.77206 4.02154 5.13732L6.76515 2.39371L12.0696 7.69819L9.40914 10.341L13.6594 14.5913L16.3111 11.9396L21.6144 17.2429L18.8708 19.9866C17.236 21.6213 14.6285 21.7514 12.8392 20.2874L12.1195 19.6985Z" fill="black"/>
</svg>
