<svg width="24" height="24" viewBox="0 0 24 24" fill="none" xmlns="http://www.w3.org/2000/svg">
<path fill-rule="evenodd" clip-rule="evenodd" d="M12 2.5C6.7533 2.5 2.5 6.7533 2.5 12C2.5 17.2461 6.75237 21.4991 11.9983 21.5H12.0017C17.2476 21.4991 21.5 17.2461 21.5 12C21.5 6.7533 17.2467 2.5 12 2.5ZM3.775 9.84717C3.59553 10.5347 3.5 11.2562 3.5 12C3.5 12.7438 3.59553 13.4653 3.775 14.1528V14H7.65292C7.55505 13.3561 7.5 12.6869 7.5 12C7.5 11.3131 7.55505 10.6439 7.65292 10H3.775V9.84717ZM4.04455 9H7.84245C8.1542 7.62781 8.64679 6.40035 9.18454 5.3994C9.55305 4.71349 9.94735 4.12531 10.3272 3.66455C7.43138 4.24248 5.06634 6.29177 4.04455 9ZM8.66535 10C8.5599 10.6425 8.5 11.3122 8.5 12C8.5 12.6878 8.5599 13.3575 8.66535 14H15.3347C15.4401 13.3575 15.5 12.6878 15.5 12C15.5 11.3122 15.4401 10.6425 15.3347 10H8.66535ZM15.1301 9H8.86995C9.16061 7.81473 9.59403 6.75016 10.0655 5.87267C10.4873 5.08752 10.9326 4.4652 11.3199 4.04705C11.5143 3.83725 11.6845 3.68915 11.8206 3.59736C11.9245 3.52729 11.9825 3.50758 12 3.50208C12.0175 3.50758 12.0755 3.52729 12.1794 3.59736C12.3155 3.68915 12.4857 3.83725 12.6801 4.04705C13.0674 4.4652 13.5127 5.08752 13.9345 5.87267C14.406 6.75016 14.8394 7.81473 15.1301 9ZM16.3471 10C16.445 10.6439 16.5 11.3131 16.5 12C16.5 12.6869 16.445 13.3561 16.3471 14H20.225V14.1528C20.4045 13.4653 20.5 12.7438 20.5 12C20.5 11.2562 20.4045 10.5347 20.225 9.84717V10H16.3471ZM19.9554 9H16.1575C15.8458 7.62781 15.3532 6.40035 14.8155 5.3994C14.447 4.71349 14.0526 4.12531 13.6728 3.66455C16.5686 4.24248 18.9337 6.29177 19.9554 9ZM10.3272 20.3355C7.43138 19.7575 5.06634 17.7082 4.04455 15H7.84245C8.1542 16.3722 8.64679 17.5997 9.18454 18.6006C9.55305 19.2865 9.94735 19.8747 10.3272 20.3355ZM10.0655 18.1273C9.59403 17.2498 9.16061 16.1853 8.86995 15H15.1301C14.8394 16.1853 14.406 17.2498 13.9345 18.1273C13.5127 18.9125 13.0674 19.5348 12.6801 19.953C12.4857 20.1627 12.3155 20.3108 12.1794 20.4026C12.0755 20.4727 12.0175 20.4924 12 20.4979C11.9825 20.4924 11.9245 20.4727 11.8206 20.4026C11.6845 20.3108 11.5143 20.1627 11.3199 19.953C10.9326 19.5348 10.4873 18.9125 10.0655 18.1273ZM14.8155 18.6006C15.3532 17.5997 15.8458 16.3722 16.1575 15H19.9554C18.9337 17.7082 16.5686 19.7575 13.6728 20.3355C14.0526 19.8747 14.447 19.2865 14.8155 18.6006Z" fill="black"/>
</svg>
