<svg width="24" height="24" viewBox="0 0 24 24" fill="none" xmlns="http://www.w3.org/2000/svg">
<path fill-rule="evenodd" clip-rule="evenodd" d="M16.1822 4.28241C17.1585 3.3061 18.7414 3.3061 19.7177 4.28241C20.694 5.25872 20.694 6.84163 19.7177 7.81795L18.1685 9.3672L20.6433 16.7918L17.8384 19.5968L14.2635 13.2721L11.0504 16.4852L12.0227 18.3414L9.46467 20.8994L3.10071 14.5355L5.65873 11.9774L7.51489 12.9497L10.728 9.73659L4.40333 6.16177L7.2083 3.3568L14.6329 5.83167L16.1822 4.28241ZM19.0106 4.98952C18.4248 4.40373 17.4751 4.40373 16.8893 4.98952L14.903 6.97579L7.47839 4.50092L6.04073 5.93858L12.3654 9.5134L7.70214 14.1767L5.84598 13.2044L4.51492 14.5355L9.46467 19.4852L10.7957 18.1541L9.82346 16.298L14.4867 11.6347L18.0615 17.9594L19.4992 16.5217L17.0243 9.09711L19.0106 7.11084C19.5964 6.52505 19.5964 5.5753 19.0106 4.98952Z" fill="black"/>
</svg>
