<svg width="24" height="24" viewBox="0 0 24 24" fill="none" xmlns="http://www.w3.org/2000/svg">
<path d="M13.975 2.50005C13.9833 2.50002 13.9917 2.5 14 2.5V2.50019C16.2407 2.51706 18.2113 3.66811 19.3664 5.40537L18.5337 5.95904C17.5518 4.48227 15.8773 3.50851 13.975 3.50006C10.9489 3.51351 8.5 5.97076 8.5 9V11.5L13.45 11.5V12.5L8.5 12.5V18C8.5 18.9793 8.09777 19.8647 7.44949 20.5L18.5 20.5V21.5L4.5 21.5L4.5 20.5H5.00053C6.381 20.4997 7.5 19.3805 7.5 18V12.5H4.5L4.5 11.5H7.5V9C7.5 5.42682 10.3832 2.52704 13.95 2.50019V2.5C13.9584 2.5 13.9667 2.50002 13.975 2.50005Z" fill="black"/>
</svg>
