<svg width="24" height="24" viewBox="0 0 24 24" fill="none" xmlns="http://www.w3.org/2000/svg">
<path d="M8.5 10C8.5 8.067 10.067 6.5 12 6.5C13.933 6.5 15.5 8.067 15.5 10C15.5 11.7632 14.1961 13.2219 12.5 13.4646V14.5125H11.5V12.5H12C13.3807 12.5 14.5 11.3807 14.5 10C14.5 8.61929 13.3807 7.5 12 7.5C10.6193 7.5 9.5 8.61929 9.5 10H8.5Z" fill="black"/>
<path d="M12.5 17.5V16H11.5V17.5H12.5Z" fill="black"/>
<path fill-rule="evenodd" clip-rule="evenodd" d="M2.5 12C2.5 6.7533 6.7533 2.5 12 2.5C17.2467 2.5 21.5 6.7533 21.5 12C21.5 17.2467 17.2467 21.5 12 21.5C6.7533 21.5 2.5 17.2467 2.5 12ZM12 3.5C7.30558 3.5 3.5 7.30558 3.5 12C3.5 16.6944 7.30558 20.5 12 20.5C16.6944 20.5 20.5 16.6944 20.5 12C20.5 7.30558 16.6944 3.5 12 3.5Z" fill="black"/>
</svg>
