<svg width="24" height="24" viewBox="0 0 24 24" fill="none" xmlns="http://www.w3.org/2000/svg">
<path d="M20.5 12C20.5 7.30558 16.6944 3.5 12 3.5V2.5C17.2467 2.5 21.5 6.75329 21.5 12C21.5 17.2467 17.2467 21.5 12 21.5C6.75332 21.5 2.50002 17.2467 2.50002 12C2.50002 9.04437 3.85004 6.40434 5.96551 4.6625L2.02502 4.6625L2.02502 3.6625L8.02502 3.6625L8.02502 9.6625H7.02502L7.02502 5.1072C4.88866 6.65191 3.50002 9.16395 3.50002 12C3.50002 16.6944 7.3056 20.5 12 20.5C16.6944 20.5 20.5 16.6944 20.5 12Z" fill="black"/>
</svg>
