<svg width="24" height="24" viewBox="0 0 24 24" fill="none" xmlns="http://www.w3.org/2000/svg">
<path d="M15.5841 7.937C15.2912 7.64411 14.8164 7.64411 14.5235 7.937C14.2306 8.22989 14.2306 8.70477 14.5235 8.99766C14.8164 9.29055 15.2912 9.29055 15.5841 8.99766C15.877 8.70477 15.877 8.22989 15.5841 7.937Z" fill="black"/>
<path fill-rule="evenodd" clip-rule="evenodd" d="M20.447 3.18262L19.6511 10.3455L16.898 13.0311L18.1976 17.4675L14.2315 21.4336L11.2948 18.4969L8.97721 20.7577L2.61319 14.3937L4.9308 12.1329L2.21069 9.41279L6.17682 5.44666L10.4899 6.7101L13.291 3.97773L20.447 3.18262ZM12.0107 17.7986L16.0876 13.8217L17.0712 17.1796L14.2315 20.0194L12.0107 17.7986ZM3.62491 9.41279L5.64669 11.4346L9.66842 7.51148L6.46469 6.57301L3.62491 9.41279ZM13.7432 4.93364L4.03624 14.4025L8.98593 19.3522L18.6968 9.87954L19.3151 4.31454L13.7432 4.93364Z" fill="black"/>
</svg>
