<svg width="24" height="24" viewBox="0 0 24 24" fill="none" xmlns="http://www.w3.org/2000/svg">
<path d="M10.8622 14.7061L16.0571 9.52599L15.351 8.81787L10.8622 13.2939L8.64897 11.087L7.94287 11.7951L10.8622 14.7061Z" fill="black"/>
<path fill-rule="evenodd" clip-rule="evenodd" d="M15.5681 3.98524L12 2.45605L8.43191 3.98524L4.5 3.42353V11.8998C4.5 15.2319 6.2921 18.3065 9.19143 19.9486L12.0647 21.5759L14.8703 19.9583C17.7349 18.3066 19.5 15.2515 19.5 11.9448V3.42353L15.5681 3.98524ZM8.56809 5.01484L12 3.54402L15.4319 5.01484L18.5 4.57654V11.9448C18.5 14.894 16.9257 17.6188 14.3709 19.0919L12.0603 20.4242L9.68425 19.0784C7.09836 17.6139 5.5 14.8717 5.5 11.8998V4.57654L8.56809 5.01484Z" fill="black"/>
</svg>
