<svg width="24" height="24" viewBox="0 0 24 24" fill="none" xmlns="http://www.w3.org/2000/svg">
<path fill-rule="evenodd" clip-rule="evenodd" d="M5.5 6.55001V3H4.5V6.55001C3.35888 6.78164 2.5 7.79052 2.5 9C2.5 10.2095 3.35888 11.2184 4.5 11.45V21H5.5V11.45C6.64112 11.2184 7.5 10.2095 7.5 9C7.5 7.79052 6.64112 6.78164 5.5 6.55001ZM3.5 9C3.5 8.17157 4.17157 7.5 5 7.5C5.82843 7.5 6.5 8.17157 6.5 9C6.5 9.82843 5.82843 10.5 5 10.5C4.17157 10.5 3.5 9.82843 3.5 9Z" fill="black"/>
<path fill-rule="evenodd" clip-rule="evenodd" d="M11.5 13.55C10.3589 13.7816 9.5 14.7905 9.5 16C9.5 17.2095 10.3589 18.2184 11.5 18.45V21H12.5V18.45C13.6411 18.2184 14.5 17.2095 14.5 16C14.5 14.7905 13.6411 13.7816 12.5 13.55V3H11.5V13.55ZM10.5 16C10.5 15.1716 11.1716 14.5 12 14.5C12.8284 14.5 13.5 15.1716 13.5 16C13.5 16.8284 12.8284 17.5 12 17.5C11.1716 17.5 10.5 16.8284 10.5 16Z" fill="black"/>
<path fill-rule="evenodd" clip-rule="evenodd" d="M19.5 8.55001V3H18.5V8.55001C17.3589 8.78164 16.5 9.79052 16.5 11C16.5 12.2095 17.3589 13.2184 18.5 13.45V21H19.5V13.45C20.6411 13.2184 21.5 12.2095 21.5 11C21.5 9.79052 20.6411 8.78164 19.5 8.55001ZM17.5 11C17.5 10.1716 18.1716 9.5 19 9.5C19.8284 9.5 20.5 10.1716 20.5 11C20.5 11.8284 19.8284 12.5 19 12.5C18.1716 12.5 17.5 11.8284 17.5 11Z" fill="black"/>
</svg>
