<svg width="24" height="24" viewBox="0 0 24 24" fill="none" xmlns="http://www.w3.org/2000/svg">
<path d="M15.5 15.5V14.5H8.5V15.5H15.5Z" fill="black"/>
<path d="M8.5 9.75C8.5 9.33579 8.83579 9 9.25 9C9.66421 9 10 9.33579 10 9.75C10 10.1642 9.66421 10.5 9.25 10.5C8.83579 10.5 8.5 10.1642 8.5 9.75Z" fill="black"/>
<path d="M14.75 9C14.3358 9 14 9.33579 14 9.75C14 10.1642 14.3358 10.5 14.75 10.5C15.1642 10.5 15.5 10.1642 15.5 9.75C15.5 9.33579 15.1642 9 14.75 9Z" fill="black"/>
<path fill-rule="evenodd" clip-rule="evenodd" d="M12 2.5C6.7533 2.5 2.5 6.7533 2.5 12C2.5 17.2467 6.7533 21.5 12 21.5C17.2467 21.5 21.5 17.2467 21.5 12C21.5 6.7533 17.2467 2.5 12 2.5ZM3.5 12C3.5 7.30558 7.30558 3.5 12 3.5C16.6944 3.5 20.5 7.30558 20.5 12C20.5 16.6944 16.6944 20.5 12 20.5C7.30558 20.5 3.5 16.6944 3.5 12Z" fill="black"/>
</svg>
