<svg width="24" height="24" viewBox="0 0 24 24" fill="none" xmlns="http://www.w3.org/2000/svg">
<path fill-rule="evenodd" clip-rule="evenodd" d="M4.52663 6.43111C3.85475 7.30833 3.5 8.51173 3.5 9.76667C3.5 11.0703 4.01183 12.3629 4.82325 13.5894C5.63374 14.8144 6.72358 15.9434 7.82898 16.9093C8.93247 17.8734 10.0383 18.6635 10.8695 19.213C11.2846 19.4874 11.63 19.701 11.8707 19.8456C11.9179 19.8739 11.9611 19.8996 12 19.9226C12.0389 19.8996 12.0821 19.8739 12.1293 19.8456C12.37 19.701 12.7154 19.4874 13.1305 19.213C13.9617 18.6635 15.0675 17.8734 16.171 16.9093C17.2764 15.9434 18.3663 14.8144 19.1768 13.5894C19.9882 12.3629 20.5 11.0703 20.5 9.76667C20.5 8.51084 20.1479 7.30752 19.4778 6.43071C18.8184 5.56809 17.8379 5 16.5 5C15.1484 5 14.1327 5.56107 13.4451 6.13411C13.101 6.42088 12.8428 6.70784 12.6717 6.92172C12.5863 7.02839 12.5233 7.11608 12.4827 7.17534C12.4624 7.20495 12.4477 7.22738 12.4387 7.24145C12.4342 7.24848 12.4311 7.25342 12.4295 7.2561C12.4288 7.25711 12.4284 7.25779 12.4282 7.25816C12.4282 7.25822 12.4281 7.25828 12.4281 7.25828C12.4281 7.25833 12.428 7.25842 12.428 7.25842L12.0018 7.96886L11.5729 7.25996L11.5728 7.25983C11.5728 7.25983 11.5728 7.25977 11.5727 7.25972C11.5725 7.25935 11.5721 7.25864 11.5714 7.25761C11.5697 7.2549 11.5666 7.24994 11.5621 7.24289C11.553 7.22878 11.5382 7.2063 11.5177 7.17664C11.4767 7.11728 11.4132 7.02949 11.3274 6.92271C11.1552 6.70862 10.8957 6.42142 10.5506 6.13444C9.86077 5.56077 8.84502 5 7.5 5C6.16888 5 5.18794 5.56771 4.52663 6.43111ZM12 20.5C11.7574 20.9372 11.7573 20.9371 11.7571 20.937L11.7549 20.9358L11.7492 20.9326C11.7443 20.9299 11.7373 20.9259 11.7282 20.9208C11.71 20.9105 11.6835 20.8955 11.6493 20.8758C11.581 20.8364 11.4817 20.7784 11.3559 20.7029C11.1044 20.5519 10.7467 20.3306 10.318 20.0472C9.46167 19.481 8.31753 18.664 7.17102 17.6623C6.02643 16.6623 4.86626 15.4667 3.98925 14.1411C3.11317 12.817 2.5 11.333 2.5 9.76667C2.5 8.33827 2.9015 6.90834 3.73274 5.82305C4.57456 4.72396 5.84362 4 7.5 4C9.14248 4 10.3767 4.68923 11.19 5.36556C11.5305 5.64868 11.8 5.93164 11.9989 6.16572C12.1969 5.93162 12.4654 5.64883 12.8049 5.36589C13.6173 4.68893 14.8516 4 16.5 4C18.1621 4 19.4316 4.72358 20.2723 5.82345C21.1021 6.90915 21.5 8.33916 21.5 9.76667C21.5 11.333 20.8868 12.817 20.0107 14.1411C19.1337 15.4667 17.9736 16.6623 16.829 17.6623C15.6825 18.664 14.5383 19.481 13.682 20.0472C13.2533 20.3306 12.8956 20.5519 12.6441 20.7029C12.5183 20.7784 12.419 20.8364 12.3507 20.8758C12.3165 20.8955 12.29 20.9105 12.2718 20.9208C12.2658 20.9242 12.2606 20.9271 12.2564 20.9295C12.2543 20.9307 12.2524 20.9317 12.2508 20.9326L12.2451 20.9358L12.2429 20.937C12.2427 20.9371 12.2426 20.9372 12 20.5ZM12 20.5L12.2426 20.9372L12 21.0718L11.7574 20.9372L12 20.5Z" fill="black"/>
</svg>
