<svg width="24" height="24" viewBox="0 0 24 24" fill="none" xmlns="http://www.w3.org/2000/svg">
<path d="M11.5 20.25V21.5H12.5V20.25H11.5Z" fill="black"/>
<path d="M11.5 2.5V3.75H12.5V2.5H11.5Z" fill="black"/>
<path fill-rule="evenodd" clip-rule="evenodd" d="M6.5 12C6.5 8.96243 8.96243 6.5 12 6.5C15.0376 6.5 17.5 8.96243 17.5 12C17.5 15.0376 15.0376 17.5 12 17.5C8.96243 17.5 6.5 15.0376 6.5 12ZM12 7.5C9.51472 7.5 7.5 9.51472 7.5 12C7.5 14.4853 9.51472 16.5 12 16.5C14.4853 16.5 16.5 14.4853 16.5 12C16.5 9.51472 14.4853 7.5 12 7.5Z" fill="black"/>
<path d="M2.5 11.5H3.75V12.5H2.5V11.5Z" fill="black"/>
<path d="M20.25 11.5H21.5V12.5H20.25V11.5Z" fill="black"/>
<path d="M5.63604 4.92896L6.51992 5.81284L5.81281 6.51995L4.92893 5.63606L5.63604 4.92896Z" fill="black"/>
<path d="M18.1872 17.4801L19.0711 18.364L18.364 19.0711L17.4801 18.1872L18.1872 17.4801Z" fill="black"/>
<path d="M5.81284 17.4801L4.92896 18.364L5.63606 19.0711L6.51995 18.1872L5.81284 17.4801Z" fill="black"/>
<path d="M18.364 4.92894L17.4801 5.81282L18.1872 6.51993L19.0711 5.63604L18.364 4.92894Z" fill="black"/>
</svg>
