<svg width="24" height="24" viewBox="0 0 24 24" fill="none" xmlns="http://www.w3.org/2000/svg">
<path d="M11.5 9.5L11.5 12.5L14.5 12.5L14.5 11.5L12.5 11.5V9.5H11.5Z" fill="black"/>
<path fill-rule="evenodd" clip-rule="evenodd" d="M16.5 2.5H7.525V7.28571C6.27771 8.47007 5.5 10.1442 5.5 12C5.5 13.8558 6.27771 15.5299 7.525 16.7143V21.5H16.5V16.6904C17.7327 15.5075 18.5 13.8434 18.5 12C18.5 10.1566 17.7327 8.4925 16.5 7.30957V2.5ZM8.525 20.5V17.4941C9.53009 18.1312 10.722 18.5 12 18.5C13.2886 18.5 14.4897 18.125 15.5 17.4782V20.5H8.525ZM15.5 6.52182V3.5H8.525V6.50589C9.53009 5.86884 10.722 5.5 12 5.5C13.2886 5.5 14.4897 5.875 15.5 6.52182ZM6.5 12C6.5 8.96243 8.96243 6.5 12 6.5C15.0376 6.5 17.5 8.96243 17.5 12C17.5 15.0376 15.0376 17.5 12 17.5C8.96243 17.5 6.5 15.0376 6.5 12Z" fill="black"/>
</svg>
