<svg width="24" height="24" viewBox="0 0 24 24" fill="none" xmlns="http://www.w3.org/2000/svg">
<path d="M21.546 9.79573C21.655 9.90476 21.7618 10.0152 21.8663 10.127L21.1588 10.8345C21.0546 10.7225 20.9479 10.6119 20.8389 10.5028C15.9573 5.62129 8.04277 5.62129 3.16121 10.5028C3.05215 10.6119 2.94552 10.7225 2.84133 10.8345L2.13379 10.127C2.23831 10.0152 2.34508 9.90476 2.45411 9.79573C7.72618 4.52366 16.2739 4.52366 21.546 9.79573Z" fill="black"/>
<path d="M18.7176 12.6243C18.8268 12.7335 18.9327 12.8447 19.0355 12.9577L18.3275 13.6658C18.2254 13.5522 18.1197 13.4406 18.0104 13.3314C14.691 10.0119 9.30909 10.0119 5.98963 13.3314C5.88035 13.4406 5.77466 13.5522 5.67257 13.6658L4.96455 12.9577C5.06733 12.8447 5.17332 12.7335 5.28252 12.6243C8.9925 8.91428 15.0076 8.91428 18.7176 12.6243Z" fill="black"/>
<path d="M16.2014 15.7919C16.1029 15.6756 15.9988 15.5624 15.8891 15.4527C13.7413 13.3048 10.2589 13.3048 8.11097 15.4527C8.00127 15.5624 7.89718 15.6756 7.79868 15.7919L8.50881 16.502C8.60502 16.384 8.70811 16.2698 8.81808 16.1598C10.5754 14.4024 13.4247 14.4024 15.182 16.1598C15.292 16.2698 15.3951 16.384 15.4913 16.502L16.2014 15.7919Z" fill="black"/>
<path d="M12 19.9932L13.3355 18.6577C13.2659 18.522 13.1744 18.3947 13.0607 18.281C12.4749 17.6952 11.5252 17.6952 10.9394 18.281C10.8257 18.3947 10.7341 18.522 10.6646 18.6577L12 19.9932Z" fill="black"/>
</svg>
