<svg width="24" height="24" viewBox="0 0 24 24" fill="none" xmlns="http://www.w3.org/2000/svg">
<path d="M7.05057 3.11639L3.38362 6.05426L2.44574 4.88363L6.11269 1.94576L7.05057 3.11639Z" fill="black"/>
<path d="M12.75 12.25H16.75V13.75H11.25L11.25 8.25H12.75L12.75 12.25Z" fill="black"/>
<path fill-rule="evenodd" clip-rule="evenodd" d="M3.24999 13C3.24999 8.16751 7.1675 4.25 12 4.25C16.8325 4.25 20.75 8.16751 20.75 13C20.75 17.8325 16.8325 21.75 12 21.75C7.1675 21.75 3.24999 17.8325 3.24999 13ZM12 5.75C7.99592 5.75 4.74999 8.99594 4.74999 13C4.74999 17.0041 7.99592 20.25 12 20.25C16.0041 20.25 19.25 17.0041 19.25 13C19.25 8.99594 16.0041 5.75 12 5.75Z" fill="black"/>
<path d="M20.6127 6.05426L16.9457 3.11639L17.8836 1.94576L21.5505 4.88363L20.6127 6.05426Z" fill="black"/>
</svg>
