<svg width="24" height="24" viewBox="0 0 24 24" fill="none" xmlns="http://www.w3.org/2000/svg">
<path fill-rule="evenodd" clip-rule="evenodd" d="M12 6.25C10.4812 6.25 9.25 7.48122 9.25 9C9.25 10.5188 10.4812 11.75 12 11.75C13.5188 11.75 14.75 10.5188 14.75 9C14.75 7.48122 13.5188 6.25 12 6.25ZM10.75 9C10.75 8.30964 11.3096 7.75 12 7.75C12.6904 7.75 13.25 8.30964 13.25 9C13.25 9.69036 12.6904 10.25 12 10.25C11.3096 10.25 10.75 9.69036 10.75 9Z" fill="black"/>
<path fill-rule="evenodd" clip-rule="evenodd" d="M5.25 9C5.25 5.27208 8.27208 2.25 12 2.25C15.7279 2.25 18.75 5.27208 18.75 9C18.75 10.8756 17.985 12.5726 16.75 13.7958V22.1639L12 20.0088L7.25 22.1639V13.7958C6.015 12.5726 5.25 10.8756 5.25 9ZM15.25 13H15.4005C16.5322 12.037 17.25 10.6023 17.25 9C17.25 6.1005 14.8995 3.75 12 3.75C9.10051 3.75 6.75 6.1005 6.75 9C6.75 10.6023 7.46784 12.037 8.59947 13H8.75V13.1234C9.64393 13.8289 10.7728 14.25 12 14.25C13.2272 14.25 14.3561 13.8289 15.25 13.1234V13ZM8.75 19.8361V14.9175C9.50665 15.334 10.3518 15.6095 11.25 15.7088V18.7019L8.75 19.8361ZM15.25 14.9175C14.4934 15.334 13.6482 15.6095 12.75 15.7088V18.7019L15.25 19.8361V14.9175Z" fill="black"/>
</svg>
