<svg width="24" height="24" viewBox="0 0 24 24" fill="none" xmlns="http://www.w3.org/2000/svg">
<path fill-rule="evenodd" clip-rule="evenodd" d="M12 6.25C10.4812 6.25 9.25001 7.48122 9.25001 9C9.25001 10.5188 10.4812 11.75 12 11.75C13.5188 11.75 14.75 10.5188 14.75 9C14.75 7.48122 13.5188 6.25 12 6.25ZM10.75 9C10.75 8.30964 11.3097 7.75 12 7.75C12.6904 7.75 13.25 8.30964 13.25 9C13.25 9.69036 12.6904 10.25 12 10.25C11.3097 10.25 10.75 9.69036 10.75 9Z" fill="black"/>
<path fill-rule="evenodd" clip-rule="evenodd" d="M12 2.25C8.27209 2.25 5.25001 5.27208 5.25001 9C5.25001 10.0711 5.49948 11.0839 5.94348 11.9835L2.56854 17.8291L6.66683 18.2306L9.06373 21.5791L11.9981 16.4966L14.9324 21.5791L17.3293 18.2306L21.4276 17.8291L18.0548 11.9871C18.4999 11.0866 18.75 10.0725 18.75 9C18.75 5.27208 15.7279 2.25 12 2.25ZM5.03144 16.5632L6.8671 13.3838C7.85042 14.534 9.21364 15.3498 10.7625 15.6368L8.92856 18.8132L7.49042 16.8042L5.03144 16.5632ZM17.1306 13.3865C16.1467 14.5362 14.7831 15.3513 13.2341 15.6375L15.0676 18.8132L16.5057 16.8042L18.9647 16.5632L17.1306 13.3865ZM6.75001 9C6.75001 6.10051 9.10051 3.75 12 3.75C14.8995 3.75 17.25 6.10051 17.25 9C17.25 11.8995 14.8995 14.25 12 14.25C9.10051 14.25 6.75001 11.8995 6.75001 9Z" fill="black"/>
</svg>
