<svg width="24" height="24" viewBox="0 0 24 24" fill="none" xmlns="http://www.w3.org/2000/svg">
<path fill-rule="evenodd" clip-rule="evenodd" d="M12 2.25C7.71979 2.25 4.25 5.71979 4.25 10V13.3229L3.25 15.3229V18.25H8.25C8.25 20.3211 9.92893 22 12 22C14.0711 22 15.75 20.3211 15.75 18.25H20.75V15.3229L19.75 13.3229V10C19.75 5.71979 16.2802 2.25 12 2.25ZM14.25 18.25H9.75C9.75 19.4926 10.7574 20.5 12 20.5C13.2426 20.5 14.25 19.4926 14.25 18.25ZM5.75 10C5.75 6.54822 8.54822 3.75 12 3.75C15.4518 3.75 18.25 6.54822 18.25 10V13.6771L19.25 15.6771V16.75H4.75V15.6771L5.75 13.6771V10Z" fill="black"/>
</svg>
