<svg width="24" height="24" viewBox="0 0 24 24" fill="none" xmlns="http://www.w3.org/2000/svg">
<path fill-rule="evenodd" clip-rule="evenodd" d="M12 8.25C9.37665 8.25 7.25 10.3766 7.25 13C7.25 15.6234 9.37665 17.75 12 17.75C14.6234 17.75 16.75 15.6234 16.75 13C16.75 10.3766 14.6234 8.25 12 8.25ZM8.75 13C8.75 11.2051 10.2051 9.75 12 9.75C13.7949 9.75 15.25 11.2051 15.25 13C15.25 14.7949 13.7949 16.25 12 16.25C10.2051 16.25 8.75 14.7949 8.75 13Z" fill="black"/>
<path fill-rule="evenodd" clip-rule="evenodd" d="M15.4635 2.75H8.53647L6.53647 6.75H2.25V21.25H21.75V6.75H17.4635L15.4635 2.75ZM7.46353 8.25L9.46353 4.25H14.5365L16.5365 8.25H20.25V19.75H3.75V8.25H7.46353Z" fill="black"/>
</svg>
