<svg width="24" height="24" viewBox="0 0 24 24" fill="none" xmlns="http://www.w3.org/2000/svg">
<path fill-rule="evenodd" clip-rule="evenodd" d="M2 2.25H5.54057L6.54057 5.25H22.2731L16.4543 15.75H9.375L7.43018 18.3431C7.50702 18.471 7.5715 18.6072 7.62197 18.75H16.378C16.6869 17.8761 17.5203 17.25 18.5 17.25C19.7426 17.25 20.75 18.2574 20.75 19.5C20.75 20.7426 19.7426 21.75 18.5 21.75C17.5203 21.75 16.6869 21.1239 16.378 20.25H7.62197C7.31309 21.1239 6.47966 21.75 5.5 21.75C4.25736 21.75 3.25 20.7426 3.25 19.5C3.25 18.2574 4.25736 17.25 5.5 17.25C5.77153 17.25 6.03182 17.2981 6.27282 17.3862L8.16422 14.8644L4.45943 3.75H2V2.25ZM9.54057 14.25H15.5707L19.7269 6.75H7.04057L9.54057 14.25ZM18.5 18.75C18.0858 18.75 17.75 19.0858 17.75 19.5C17.75 19.9142 18.0858 20.25 18.5 20.25C18.9142 20.25 19.25 19.9142 19.25 19.5C19.25 19.0858 18.9142 18.75 18.5 18.75ZM4.75 19.5C4.75 19.0858 5.08579 18.75 5.5 18.75C5.91421 18.75 6.25 19.0858 6.25 19.5C6.25 19.9142 5.91421 20.25 5.5 20.25C5.08579 20.25 4.75 19.9142 4.75 19.5Z" fill="black"/>
</svg>
