<svg width="24" height="24" viewBox="0 0 24 24" fill="none" xmlns="http://www.w3.org/2000/svg">
<path d="M6.75 11C6.19772 11 5.75 11.4477 5.75 12C5.75 12.5523 6.19772 13 6.75 13C7.30228 13 7.75 12.5523 7.75 12C7.75 11.4477 7.30228 11 6.75 11Z" fill="black"/>
<path d="M16.25 12C16.25 11.4477 16.6977 11 17.25 11C17.8023 11 18.25 11.4477 18.25 12C18.25 12.5523 17.8023 13 17.25 13C16.6977 13 16.25 12.5523 16.25 12Z" fill="black"/>
<path fill-rule="evenodd" clip-rule="evenodd" d="M12 9.5C10.6193 9.5 9.5 10.6193 9.5 12C9.5 13.3807 10.6193 14.5 12 14.5C13.3807 14.5 14.5 13.3807 14.5 12C14.5 10.6193 13.3807 9.5 12 9.5ZM11 12C11 11.4477 11.4477 11 12 11C12.5523 11 13 11.4477 13 12C13 12.5523 12.5523 13 12 13C11.4477 13 11 12.5523 11 12Z" fill="black"/>
<path fill-rule="evenodd" clip-rule="evenodd" d="M21.75 6.25H2.25V17.75H21.75V6.25ZM3.75 16.25V7.75H20.25V16.25H3.75Z" fill="black"/>
</svg>
