<svg width="24" height="24" viewBox="0 0 24 24" fill="none" xmlns="http://www.w3.org/2000/svg">
<path fill-rule="evenodd" clip-rule="evenodd" d="M2.25 12C2.25 6.61522 6.61522 2.25 12 2.25C17.3848 2.25 21.75 6.61522 21.75 12C21.75 14.6922 20.6579 17.1307 18.8943 18.8943C17.1307 20.6579 14.6922 21.75 12 21.75C6.61522 21.75 2.25 17.3848 2.25 12ZM11.25 3.78363C7.04513 4.16255 3.75 7.69647 3.75 12C3.75 16.5563 7.44365 20.25 12 20.25C14.0084 20.25 15.8483 19.5331 17.2793 18.34L11.25 12.3107V3.78363ZM12.75 3.78363V11.25H20.2164C19.8597 7.29215 16.7079 4.14029 12.75 3.78363ZM20.2164 12.75H13.8107L18.34 17.2793C19.3829 16.0284 20.062 14.4652 20.2164 12.75Z" fill="black"/>
</svg>
