<svg width="24" height="24" viewBox="0 0 24 24" fill="none" xmlns="http://www.w3.org/2000/svg">
<path d="M11.375 3.75C9.15631 3.75 7.30094 5.31302 6.8531 7.39858L6.76931 7.78877L6.39889 7.93727C5.43123 8.32519 4.75 9.27145 4.75 10.375C4.75 11.8247 5.92525 13 7.375 13C7.87562 13 8.34138 12.8606 8.73817 12.6189L9.07935 12.411L9.4422 12.5782C9.54288 12.6246 9.64553 12.6675 9.75 12.7067V14.2819C9.55213 14.2276 9.3582 14.1636 9.16879 14.0904C8.62586 14.3529 8.01684 14.5 7.375 14.5C5.09683 14.5 3.25 12.6532 3.25 10.375C3.25 8.77938 4.15575 7.39684 5.47899 6.7108C6.20425 4.1369 8.56848 2.25 11.375 2.25C13.1729 2.25 14.7903 3.02544 15.9098 4.25778C18.6078 4.40556 20.75 6.64011 20.75 9.375C20.75 12.2055 18.4555 14.5 15.625 14.5C15.1493 14.5 14.688 14.435 14.25 14.3133V12.7303C14.6733 12.9041 15.1372 13 15.625 13C17.627 13 19.25 11.377 19.25 9.375C19.25 7.37297 17.627 5.75 15.625 5.75C15.6066 5.75 15.5883 5.75014 15.57 5.75041L15.2049 5.75581L14.9754 5.47169C14.1264 4.4203 12.8292 3.75 11.375 3.75Z" fill="black"/>
<path d="M12.75 19.1893L12.75 9.25H11.25V19.1894L9.37499 17.3144L8.31433 18.375L12 22.0607L15.6857 18.375L14.625 17.3144L12.75 19.1893Z" fill="black"/>
</svg>
