<svg width="24" height="24" viewBox="0 0 24 24" fill="none" xmlns="http://www.w3.org/2000/svg">
<path fill-rule="evenodd" clip-rule="evenodd" d="M15 6.75C13.2517 6.75 11.7029 7.60382 10.7475 8.9205L10.3817 9.4246L9.81901 9.15765C9.26849 8.89648 8.6524 8.75 8 8.75C5.65279 8.75 3.75 10.6528 3.75 13C3.75 15.3472 5.65279 17.25 8 17.25C9.0834 17.25 10.0705 16.8456 10.8215 16.1784L11.2878 15.7641L11.7801 16.147C12.6693 16.8386 13.7856 17.25 15 17.25C17.8995 17.25 20.25 14.8995 20.25 12C20.25 9.1005 17.8995 6.75 15 6.75ZM9.90435 7.57307C11.141 6.15087 12.9653 5.25 15 5.25C18.7279 5.25 21.75 8.27208 21.75 12C21.75 15.7279 18.7279 18.75 15 18.75C13.6545 18.75 12.3995 18.3556 11.3463 17.6765C10.4037 18.3519 9.2477 18.75 8 18.75C4.82436 18.75 2.25 16.1756 2.25 13C2.25 9.82436 4.82436 7.25 8 7.25C8.66651 7.25 9.30767 7.3637 9.90435 7.57307Z" fill="black"/>
</svg>
