<svg width="24" height="24" viewBox="0 0 24 24" fill="none" xmlns="http://www.w3.org/2000/svg">
<path d="M12 10.75C11.3096 10.75 10.75 11.3096 10.75 12C10.75 12.6904 11.3096 13.25 12 13.25C12.6904 13.25 13.25 12.6904 13.25 12C13.25 11.3096 12.6904 10.75 12 10.75Z" fill="black"/>
<path fill-rule="evenodd" clip-rule="evenodd" d="M12.75 2.25V4.28582C16.4315 4.63935 19.3606 7.5685 19.7142 11.25H21.75V12.75H19.7142C19.3606 16.4315 16.4315 19.3606 12.75 19.7142V21.75H11.25V19.7142C7.5685 19.3606 4.63935 16.4315 4.28582 12.75H2.25V11.25H4.28582C4.63935 7.5685 7.5685 4.63935 11.25 4.28582V2.25L12.75 2.25ZM5.79454 12.75H7.75V11.25H5.79454C6.13565 8.39773 8.39773 6.13565 11.25 5.79454V7.75H12.75V5.79454C15.6023 6.13565 17.8644 8.39773 18.2055 11.25H16.25V12.75H18.2055C17.8644 15.6023 15.6023 17.8644 12.75 18.2055V16.25H11.25V18.2055C8.39773 17.8644 6.13565 15.6023 5.79454 12.75Z" fill="black"/>
</svg>
