<svg width="24" height="24" viewBox="0 0 24 24" fill="none" xmlns="http://www.w3.org/2000/svg">
<path fill-rule="evenodd" clip-rule="evenodd" d="M12 2.25C6.61522 2.25 2.25 6.61522 2.25 12C2.25 17.3848 6.61522 21.75 12 21.75C17.3848 21.75 21.75 17.3848 21.75 12C21.75 6.61522 17.3848 2.25 12 2.25ZM4.50815 8.5406C4.02152 9.5927 3.75 10.7646 3.75 12C3.75 12.78 3.85825 13.5348 4.06055 14.25H9.35352C9.61255 13.3342 10.3342 12.6125 11.25 12.3535V8H12.75V12.3535C13.6658 12.6125 14.3875 13.3342 14.6465 14.25H19.9395C20.1418 13.5348 20.25 12.78 20.25 12C20.25 10.7646 19.9785 9.59271 19.4919 8.54061L18.0042 9.39953L17.2542 8.10049L18.7407 7.24223C17.3824 5.32128 15.2236 4.00654 12.75 3.78363V5.5H11.25V3.78363C8.7764 4.00654 6.61762 5.32127 5.25929 7.24222L6.74583 8.10047L5.99583 9.39951L4.50815 8.5406ZM14.6465 15.75C14.32 16.9043 13.2588 17.75 12 17.75C10.7412 17.75 9.67998 16.9043 9.35352 15.75H4.64956C6.0151 18.4213 8.79399 20.25 12 20.25C15.206 20.25 17.9849 18.4213 19.3504 15.75H14.6465ZM10.75 15C10.75 14.3096 11.3096 13.75 12 13.75C12.6904 13.75 13.25 14.3096 13.25 15C13.25 15.6904 12.6904 16.25 12 16.25C11.3096 16.25 10.75 15.6904 10.75 15Z" fill="black"/>
</svg>
