<svg width="24" height="24" viewBox="0 0 24 24" fill="none" xmlns="http://www.w3.org/2000/svg">
<path d="M2.25 10.75H5.25V13.25H2.25V14.75H5.2912C5.66428 18.125 8.52558 20.75 12 20.75V19.25C9.35515 19.25 7.16709 17.2942 6.80317 14.75H12.75V13.25H6.75V10.75H12.75V9.25H6.80317C7.16709 6.70578 9.35515 4.75 12 4.75V3.25C8.52558 3.25 5.66428 5.87504 5.2912 9.25H2.25V10.75Z" fill="black"/>
<path d="M12 3.25C14.3486 3.25 16.4165 4.45006 17.6246 6.26695L16.3755 7.09746C15.4336 5.68096 13.8254 4.75 12 4.75V3.25Z" fill="black"/>
<path d="M12 19.25C13.8254 19.25 15.4336 18.319 16.3755 16.9025L17.6246 17.7331C16.4165 19.5499 14.3486 20.75 12 20.75V19.25Z" fill="black"/>
</svg>
