<svg width="24" height="24" viewBox="0 0 24 24" fill="none" xmlns="http://www.w3.org/2000/svg">
<path fill-rule="evenodd" clip-rule="evenodd" d="M12 8.75C10.2051 8.75 8.75 10.2051 8.75 12C8.75 13.7949 10.2051 15.25 12 15.25C13.7949 15.25 15.25 13.7949 15.25 12C15.25 10.2051 13.7949 8.75 12 8.75ZM10.25 12C10.25 11.0335 11.0335 10.25 12 10.25C12.9665 10.25 13.75 11.0335 13.75 12C13.75 12.9665 12.9665 13.75 12 13.75C11.0335 13.75 10.25 12.9665 10.25 12Z" fill="black"/>
<path fill-rule="evenodd" clip-rule="evenodd" d="M12 4.25C8.20916 4.25 5.76018 6.15944 4.28524 8.03663C3.5514 8.97062 3.05341 9.90107 2.73853 10.5971C2.58067 10.9461 2.46767 11.2387 2.39329 11.447C2.35607 11.5512 2.32844 11.6345 2.30964 11.6934C2.30023 11.7229 2.29303 11.7463 2.28793 11.7632C2.28538 11.7716 2.28335 11.7785 2.28184 11.7836L2.28104 11.7864L2.27996 11.7901L2.27931 11.7923L2.27905 11.7932C2.27894 11.7936 2.27884 11.794 2.99998 12L2.27884 11.794L2.21997 12L2.27884 12.206L2.99998 12C2.27884 12.206 2.27894 12.2064 2.27905 12.2068L2.27931 12.2077L2.27996 12.2099C2.28046 12.2117 2.28109 12.2138 2.28184 12.2164C2.28335 12.2215 2.28538 12.2284 2.28793 12.2368C2.29303 12.2537 2.30023 12.2771 2.30964 12.3066C2.32844 12.3655 2.35607 12.4488 2.39329 12.553C2.46767 12.7613 2.58067 13.0539 2.73853 13.4029C3.05341 14.0989 3.5514 15.0294 4.28524 15.9634C5.76018 17.8406 8.20916 19.75 12 19.75C15.7908 19.75 18.2398 17.8406 19.7147 15.9634C20.4486 15.0294 20.9466 14.0989 21.2614 13.4029C21.4193 13.0539 21.5323 12.7613 21.6067 12.553C21.6439 12.4488 21.6715 12.3655 21.6903 12.3066C21.6997 12.2771 21.7069 12.2537 21.712 12.2368C21.7146 12.2284 21.7166 12.2215 21.7181 12.2164C21.7189 12.2138 21.7195 12.2117 21.72 12.2099L21.7207 12.2077L21.7209 12.2068C21.721 12.2064 21.7211 12.206 21 12L21.7211 12.206L21.78 12L21.7211 11.794L21 12C21.7211 11.794 21.721 11.7936 21.7209 11.7932L21.7207 11.7923L21.72 11.7901C21.7195 11.7883 21.7189 11.7862 21.7181 11.7836C21.7166 11.7785 21.7146 11.7716 21.712 11.7632C21.7069 11.7463 21.6997 11.7229 21.6903 11.6934C21.6715 11.6345 21.6439 11.5512 21.6067 11.447C21.5323 11.2387 21.4193 10.9461 21.2614 10.5971C20.9466 9.90107 20.4486 8.97062 19.7147 8.03663C18.2398 6.15944 15.7908 4.25 12 4.25ZM3.8059 12.0485C3.79985 12.0316 3.79413 12.0154 3.78875 12C3.79413 11.9846 3.79985 11.9684 3.8059 11.9515C3.86824 11.7769 3.96617 11.5227 4.10519 11.2154C4.38406 10.5989 4.82357 9.77938 5.46472 8.96337C6.73979 7.34056 8.79081 5.75 12 5.75C15.2092 5.75 17.2602 7.34056 18.5352 8.96337C19.1764 9.77938 19.6159 10.5989 19.8948 11.2154C20.0338 11.5227 20.1317 11.7769 20.1941 11.9515C20.2001 11.9684 20.2058 11.9846 20.2112 12C20.2058 12.0154 20.2001 12.0316 20.1941 12.0485C20.1317 12.2231 20.0338 12.4773 19.8948 12.7846C19.6159 13.4011 19.1764 14.2206 18.5352 15.0366C17.2602 16.6594 15.2092 18.25 12 18.25C8.79081 18.25 6.73979 16.6594 5.46472 15.0366C4.82357 14.2206 4.38406 13.4011 4.10519 12.7846C3.96617 12.4773 3.86824 12.2231 3.8059 12.0485Z" fill="black"/>
</svg>
