<svg width="24" height="24" viewBox="0 0 24 24" fill="none" xmlns="http://www.w3.org/2000/svg">
<path fill-rule="evenodd" clip-rule="evenodd" d="M3 3.93936L5.65085 6.59021C7.13473 5.29038 9.20179 4.25001 12 4.25001C15.7908 4.25001 18.2398 6.15945 19.7147 8.03664C20.4486 8.97063 20.9465 9.90108 21.2614 10.5971C21.4193 10.9461 21.5323 11.2387 21.6067 11.447C21.6439 11.5512 21.6715 11.6345 21.6903 11.6934C21.6997 11.7229 21.7069 11.7463 21.712 11.7632C21.7146 11.7716 21.7166 11.7785 21.7181 11.7836L21.7188 11.786L21.72 11.7901L21.7206 11.7923L21.7209 11.7932C21.721 11.7936 21.7211 11.794 21 12C21.7211 12.206 21.721 12.2064 21.7209 12.2068L21.7206 12.2077L21.72 12.2099C21.7195 12.2117 21.7189 12.2138 21.7181 12.2164C21.7166 12.2215 21.7146 12.2284 21.712 12.2368C21.7069 12.2537 21.6997 12.2771 21.6903 12.3066C21.6715 12.3655 21.6439 12.4488 21.6067 12.553C21.5323 12.7613 21.4193 13.0539 21.2614 13.4029C20.9465 14.0989 20.4486 15.0294 19.7147 15.9634C19.0888 16.7599 18.2876 17.5623 17.2828 18.2221L20.0607 21L19.0607 22L2 4.93936L3 3.93936ZM18.5352 15.0366C17.9383 15.7963 17.1714 16.5489 16.1952 17.1346L13.8367 14.776L14.3367 14.2588C14.9014 13.6748 15.25 12.8773 15.25 12C15.25 10.2051 13.7949 8.75001 12 8.75001C11.1227 8.75001 10.3252 9.09862 9.74119 9.66328L9.22397 10.1633L6.7137 7.65307C7.96735 6.58025 9.68139 5.75001 12 5.75001C15.2091 5.75001 17.2602 7.34056 18.5352 8.96337C19.1764 9.77938 19.6159 10.5989 19.8948 11.2154C20.0338 11.5227 20.1317 11.7769 20.1941 11.9515C20.2001 11.9684 20.2058 11.9846 20.2112 12C20.2058 12.0154 20.2001 12.0316 20.1941 12.0485C20.1317 12.2231 20.0338 12.4773 19.8948 12.7846C19.6159 13.4011 19.1764 14.2206 18.5352 15.0366ZM13.2583 13.2162L12.7759 13.7152L10.2848 11.2241L10.7838 10.7417C11.0994 10.4366 11.5271 10.25 12 10.25C12.9665 10.25 13.75 11.0335 13.75 12C13.75 12.4729 13.5634 12.9006 13.2583 13.2162Z" fill="black"/>
<path d="M3.73568 8.79637C3.29304 9.46136 2.9674 10.0912 2.73851 10.5971C2.58065 10.9461 2.46765 11.2387 2.39327 11.447C2.35605 11.5512 2.32843 11.6345 2.30962 11.6934C2.30022 11.7229 2.29301 11.7463 2.28791 11.7632C2.28536 11.7716 2.28334 11.7785 2.28183 11.7836L2.28102 11.7864L2.27995 11.7901L2.27929 11.7923L2.27903 11.7932C2.27892 11.7936 2.27882 11.794 2.99997 12L2.27882 11.794L2.21996 12L2.27882 12.206L2.99997 12C2.27882 12.206 2.27892 12.2064 2.27903 12.2068L2.27929 12.2077L2.27995 12.2099C2.28045 12.2117 2.28107 12.2138 2.28183 12.2164C2.28334 12.2215 2.28536 12.2284 2.28791 12.2368C2.29301 12.2537 2.30022 12.2771 2.30962 12.3066C2.32843 12.3655 2.35605 12.4488 2.39327 12.553C2.46765 12.7613 2.58065 13.0539 2.73851 13.4029C3.05339 14.0989 3.55138 15.0294 4.28523 15.9634C5.76016 17.8406 8.20914 19.75 12 19.75C12.8727 19.75 13.6744 19.6488 14.4094 19.4701L13.1214 18.1821C12.7643 18.2264 12.3907 18.25 12 18.25C8.79079 18.25 6.73977 16.6594 5.46471 15.0366C4.82355 14.2206 4.38404 13.4011 4.10517 12.7846C3.96616 12.4773 3.86822 12.2231 3.80588 12.0485C3.79983 12.0316 3.79412 12.0154 3.78874 12C3.79412 11.9846 3.79983 11.9684 3.80588 11.9515C3.86822 11.7769 3.96616 11.5227 4.10517 11.2154C4.27838 10.8325 4.51356 10.3713 4.82053 9.88121L3.73568 8.79637Z" fill="black"/>
<path d="M21 12L21.7211 11.794L21.78 12L21.7211 12.206L21 12Z" fill="black"/>
</svg>
