<svg width="24" height="24" viewBox="0 0 24 24" fill="none" xmlns="http://www.w3.org/2000/svg">
<path d="M7.75 9.75H6.25V11.25H7.75V12.75H9.25V11.25H10.75V9.75H9.25V8.25H7.75V9.75Z" fill="black"/>
<path d="M14.4393 8.37871L15.5 9.43936L16.5607 8.37866L17.6213 9.43932L16.5606 10.5L17.6213 11.5607L16.5607 12.6214L15.5 11.5607L14.4393 12.6213L13.3787 11.5606L14.4393 10.5L13.3787 9.43937L14.4393 8.37871Z" fill="black"/>
<path fill-rule="evenodd" clip-rule="evenodd" d="M12.75 4.25V2H11.25V4.25H2.25V20.75H6.93402L10.534 16.75H13.466L17.066 20.75H21.75V4.25H12.75ZM3.75 19.25V5.75H20.25V19.25H17.734L14.134 15.25H9.86598L6.26598 19.25H3.75Z" fill="black"/>
</svg>
