<svg width="24" height="24" viewBox="0 0 24 24" fill="none" xmlns="http://www.w3.org/2000/svg">
<path fill-rule="evenodd" clip-rule="evenodd" d="M12 8.75001C10.2051 8.75001 8.74998 10.2051 8.74998 12C8.74998 13.7949 10.2051 15.25 12 15.25C13.7949 15.25 15.25 13.7949 15.25 12C15.25 10.2051 13.7949 8.75001 12 8.75001ZM10.25 12C10.25 11.0335 11.0335 10.25 12 10.25C12.9665 10.25 13.75 11.0335 13.75 12C13.75 12.9665 12.9665 13.75 12 13.75C11.0335 13.75 10.25 12.9665 10.25 12Z" fill="black"/>
<path fill-rule="evenodd" clip-rule="evenodd" d="M14.9467 4.88606L12 1.93936L9.0533 4.88606H4.88603V9.05333L1.93933 12L4.88603 14.9467V19.114H9.05329L12 22.0607L14.9467 19.114H19.114V14.9467L22.0607 12L19.114 9.05332V4.88606H14.9467ZM9.67462 6.38606L12 4.06068L14.3254 6.38606H17.614V9.67464L19.9393 12L17.614 14.3254V17.614H14.3254L12 19.9394L9.67461 17.614H6.38603V14.3254L4.06065 12L6.38603 9.67465V6.38606H9.67462Z" fill="black"/>
</svg>
