<svg width="24" height="24" viewBox="0 0 24 24" fill="none" xmlns="http://www.w3.org/2000/svg">
<path fill-rule="evenodd" clip-rule="evenodd" d="M12 8.75021C10.2051 8.75021 8.75 10.2053 8.75 12.0002C8.75 13.7951 10.2051 15.2502 12 15.2502C13.7949 15.2502 15.25 13.7951 15.25 12.0002C15.25 10.2053 13.7949 8.75021 12 8.75021ZM10.25 12.0002C10.25 11.0337 11.0335 10.2502 12 10.2502C12.9665 10.2502 13.75 11.0337 13.75 12.0002C13.75 12.9667 12.9665 13.7502 12 13.7502C11.0335 13.7502 10.25 12.9667 10.25 12.0002Z" fill="black"/>
<path fill-rule="evenodd" clip-rule="evenodd" d="M12 1.93954L1.93933 12.0002L12 22.0609L22.0607 12.0002L12 1.93954ZM12 19.9396L4.06065 12.0002L12 4.06087L19.9393 12.0002L12 19.9396Z" fill="black"/>
</svg>
