<svg width="24" height="24" viewBox="0 0 24 24" fill="none" xmlns="http://www.w3.org/2000/svg">
<path fill-rule="evenodd" clip-rule="evenodd" d="M12 2.42321C12.5962 1.70637 13.4948 1.25 14.5 1.25C16.2949 1.25 17.75 2.70507 17.75 4.5C17.75 5.14432 17.5625 5.74485 17.2391 6.25H21.75V13.75H20.75V21.75H3.25V13.75H2.25V6.25H6.76091C6.4375 5.74485 6.25 5.14432 6.25 4.5C6.25 2.70507 7.70507 1.25 9.5 1.25C10.5052 1.25 11.4038 1.70637 12 2.42321ZM11.25 4.5C11.25 3.5335 10.4665 2.75 9.5 2.75C8.5335 2.75 7.75 3.5335 7.75 4.5C7.75 5.4665 8.5335 6.25 9.5 6.25C10.4665 6.25 11.25 5.4665 11.25 4.5ZM3.75 7.75V12.25H11.25V7.75H3.75ZM16.25 4.5C16.25 5.4665 15.4665 6.25 14.5 6.25C13.5335 6.25 12.75 5.4665 12.75 4.5C12.75 3.5335 13.5335 2.75 14.5 2.75C15.4665 2.75 16.25 3.5335 16.25 4.5ZM12.75 7.75H20.25V12.25H12.75V7.75ZM19.25 13.75H12.75V20.25H19.25V13.75ZM11.25 13.75H4.75V20.25H11.25V13.75Z" fill="black"/>
</svg>
