<svg width="24" height="24" viewBox="0 0 24 24" fill="none" xmlns="http://www.w3.org/2000/svg">
<path fill-rule="evenodd" clip-rule="evenodd" d="M12 2.375C7.71979 2.375 4.25 5.84479 4.25 10.125C4.25 11.8684 4.82656 13.4793 5.79909 14.7745C6.28165 15.4171 6.83996 15.9807 7.37263 16.5038C7.44468 16.5746 7.51612 16.6445 7.58691 16.7137L7.58764 16.7144C8.05147 17.1682 8.48748 17.5948 8.88229 18.0566L9.15445 18.375H14.8456L15.1177 18.0566C15.5125 17.5948 15.9485 17.1682 16.4123 16.7145L16.4124 16.7144L16.4132 16.7136C16.484 16.6444 16.5554 16.5745 16.6274 16.5038C17.16 15.9807 17.7184 15.4171 18.2009 14.7745C19.1734 13.4793 19.75 11.8684 19.75 10.125C19.75 5.84479 16.2802 2.375 12 2.375ZM5.75 10.125C5.75 6.67322 8.54822 3.875 12 3.875C15.4518 3.875 18.25 6.67322 18.25 10.125C18.25 11.5325 17.7856 12.8294 17.0014 13.8738C16.5929 14.4179 16.1066 14.9129 15.5763 15.4336C15.5078 15.5009 15.4384 15.5688 15.3683 15.6373L15.3683 15.6374C14.97 16.0268 14.5506 16.4368 14.1586 16.875H9.84138C9.44943 16.4368 9.03002 16.0268 8.63173 15.6373C8.56163 15.5688 8.49219 15.5009 8.42367 15.4336C7.89343 14.9129 7.40713 14.4179 6.99858 13.8738C6.21437 12.8294 5.75 11.5325 5.75 10.125Z" fill="black"/>
<path d="M14.75 21.625V20.125H9.25V21.625H14.75Z" fill="black"/>
</svg>
