<svg width="24" height="24" viewBox="0 0 24 24" fill="none" xmlns="http://www.w3.org/2000/svg">
<path fill-rule="evenodd" clip-rule="evenodd" d="M12 6.75C10.2051 6.75 8.75 8.20507 8.75 10C8.75 11.7949 10.2051 13.25 12 13.25C13.7949 13.25 15.25 11.7949 15.25 10C15.25 8.20507 13.7949 6.75 12 6.75ZM10.25 10C10.25 9.0335 11.0335 8.25 12 8.25C12.9665 8.25 13.75 9.0335 13.75 10C13.75 10.9665 12.9665 11.75 12 11.75C11.0335 11.75 10.25 10.9665 10.25 10Z" fill="black"/>
<path fill-rule="evenodd" clip-rule="evenodd" d="M12 2.25C7.71979 2.25 4.25 5.71979 4.25 10C4.25 11.4166 4.74267 12.8518 5.42793 14.1734C6.11657 15.5015 7.02605 16.765 7.92105 17.8518C8.81788 18.9408 9.71262 19.8673 10.3823 20.5211C10.7177 20.8484 10.9977 21.1085 11.195 21.2876C11.2937 21.3772 11.3717 21.4466 11.4256 21.4942C11.4526 21.5179 11.4736 21.5362 11.4881 21.5488C11.4953 21.5552 11.501 21.56 11.505 21.5635L11.5097 21.5676L11.5111 21.5688L11.5116 21.5692C11.5118 21.5693 11.5119 21.5694 12 21L11.5119 21.5694L12 21.9878L12.4881 21.5694L12 21C12.4881 21.5694 12.4882 21.5693 12.4884 21.5692L12.4889 21.5688L12.4903 21.5676L12.495 21.5635C12.499 21.56 12.5047 21.5552 12.5119 21.5488C12.5264 21.5362 12.5474 21.5179 12.5744 21.4942C12.6283 21.4466 12.7064 21.3772 12.805 21.2876C13.0023 21.1085 13.2823 20.8484 13.6177 20.5211C14.2874 19.8673 15.1821 18.9408 16.0789 17.8518C16.9739 16.765 17.8834 15.5015 18.5721 14.1734C19.2573 12.8518 19.75 11.4166 19.75 10C19.75 5.71979 16.2802 2.25 12 2.25ZM12.5698 19.4477C12.3522 19.6602 12.1594 19.8425 12 19.9904C11.8406 19.8425 11.6478 19.6602 11.4302 19.4477C10.7874 18.8202 9.93212 17.9342 9.07895 16.8982C8.22395 15.86 7.38343 14.686 6.75957 13.4829C6.13233 12.2732 5.75 11.0834 5.75 10C5.75 6.54822 8.54822 3.75 12 3.75C15.4518 3.75 18.25 6.54822 18.25 10C18.25 11.0834 17.8677 12.2732 17.2404 13.4829C16.6166 14.686 15.7761 15.86 14.9211 16.8982C14.0679 17.9342 13.2126 18.8202 12.5698 19.4477Z" fill="black"/>
</svg>
