<svg width="24" height="24" viewBox="0 0 24 24" fill="none" xmlns="http://www.w3.org/2000/svg">
<path d="M6.25 10.25H15.75V11.75H6.25V10.25Z" fill="black"/>
<path fill-rule="evenodd" clip-rule="evenodd" d="M2.25 11C2.25 6.16751 6.16751 2.25 11 2.25C15.8325 2.25 19.75 6.16751 19.75 11C19.75 13.1462 18.9773 15.112 17.6949 16.6342L22.0607 21L21 22.0607L16.6342 17.6949C15.112 18.9773 13.1462 19.75 11 19.75C6.16751 19.75 2.25 15.8325 2.25 11ZM11 3.75C6.99594 3.75 3.75 6.99594 3.75 11C3.75 15.0041 6.99594 18.25 11 18.25C15.0041 18.25 18.25 15.0041 18.25 11C18.25 6.99594 15.0041 3.75 11 3.75Z" fill="black"/>
</svg>
