<svg width="24" height="24" viewBox="0 0 24 24" fill="none" xmlns="http://www.w3.org/2000/svg">
<path fill-rule="evenodd" clip-rule="evenodd" d="M12 4.75C7.99594 4.75 4.75 7.99594 4.75 12C4.75 16.0041 7.99594 19.25 12 19.25C14.9214 19.25 17.4392 17.5221 18.5872 15.0326C17.642 15.7047 16.4862 16.1 15.2375 16.1C12.0412 16.1 9.45 13.5088 9.45 10.3125C9.45 7.80186 11.0486 5.66461 13.2835 4.86315C12.8671 4.7888 12.4381 4.75 12 4.75ZM3.25 12C3.25 7.16751 7.16751 3.25 12 3.25C13.8802 3.25 15.624 3.84391 17.051 4.8543L16.4126 6.18782C16.04 6.08193 15.646 6.025 15.2375 6.025C12.8696 6.025 10.95 7.94458 10.95 10.3125C10.95 12.6804 12.8696 14.6 15.2375 14.6C17.1136 14.6 18.7101 13.3945 19.291 11.7137L20.7499 11.9548C20.75 11.9699 20.75 11.9849 20.75 12C20.75 16.8325 16.8325 20.75 12 20.75C7.16751 20.75 3.25 16.8325 3.25 12Z" fill="black"/>
</svg>
