<svg width="24" height="24" viewBox="0 0 24 24" fill="none" xmlns="http://www.w3.org/2000/svg">
<path fill-rule="evenodd" clip-rule="evenodd" d="M20.75 2.18491V17.5C20.75 17.5 20.75 17.5 20.75 17.5C20.75 19.2949 19.2949 20.75 17.5 20.75C15.7051 20.75 14.25 19.2949 14.25 17.5C14.25 15.7051 15.7051 14.25 17.5 14.25C18.1443 14.25 18.7449 14.4375 19.25 14.7609V8.81511L8.75 9.6901V18.5C8.74999 20.2949 7.29492 21.75 5.5 21.75C3.70507 21.75 2.25 20.2949 2.25 18.5C2.25 16.7051 3.70507 15.25 5.5 15.25C6.14432 15.25 6.74485 15.4375 7.25 15.7609V3.30991L20.75 2.18491ZM19.25 17.5C19.25 16.5335 18.4665 15.75 17.5 15.75C16.5335 15.75 15.75 16.5335 15.75 17.5C15.75 18.4665 16.5335 19.25 17.5 19.25C18.4665 19.25 19.25 18.4665 19.25 17.5C19.25 17.5 19.25 17.5 19.25 17.5ZM5.5 16.75C6.4665 16.75 7.25 17.5335 7.25 18.5C7.24999 19.4665 6.46649 20.25 5.5 20.25C4.5335 20.25 3.75 19.4665 3.75 18.5C3.75 17.5335 4.5335 16.75 5.5 16.75ZM8.75 8.18491L19.25 7.30991V3.81511L8.75 4.69011V8.18491Z" fill="black"/>
</svg>
