<svg width="24" height="24" viewBox="0 0 24 24" fill="none" xmlns="http://www.w3.org/2000/svg">
<path fill-rule="evenodd" clip-rule="evenodd" d="M19.75 8.67129V2.16206L9.25 3.32873V15.7609C8.74485 15.4375 8.14432 15.25 7.5 15.25C5.70507 15.25 4.25 16.7051 4.25 18.5C4.25 20.2949 5.70507 21.75 7.5 21.75C9.29493 21.75 10.75 20.2949 10.75 18.5V9.67129L19.75 8.67129ZM9.25 18.5C9.25 17.5335 8.4665 16.75 7.5 16.75C6.5335 16.75 5.75 17.5335 5.75 18.5C5.75 19.4665 6.5335 20.25 7.5 20.25C8.4665 20.25 9.25 19.4665 9.25 18.5ZM18.25 7.32873L10.75 8.16206V4.67129L18.25 3.83796V7.32873Z" fill="black"/>
</svg>
