<svg width="24" height="24" viewBox="0 0 24 24" fill="none" xmlns="http://www.w3.org/2000/svg">
<path fill-rule="evenodd" clip-rule="evenodd" d="M5.27647 11.097C7.56099 13.8892 10.1183 16.4465 12.9105 18.7311L13.6302 19.3199C14.9225 20.3772 16.8057 20.2833 17.9863 19.1027L19.8461 17.2429L16.3105 13.7074L13.6589 16.359L7.63787 10.338L10.2984 7.69521L6.7646 4.16145L4.90487 6.02118C3.72422 7.20183 3.6303 9.08503 4.68761 10.3773L5.27647 11.097ZM11.9606 19.892C9.09126 17.5443 6.46322 14.9163 4.11554 12.0469L3.52667 11.3272C1.98137 9.43845 2.11865 6.68608 3.84421 4.96052L6.7646 2.04013L12.4232 7.69876L9.76274 10.3416L13.6589 14.2377L16.3105 11.5861L21.9674 17.2429L19.047 20.1633C17.3214 21.8889 14.5691 22.0262 12.6804 20.4809L11.9606 19.892Z" fill="black"/>
</svg>
