<svg width="24" height="24" viewBox="0 0 24 24" fill="none" xmlns="http://www.w3.org/2000/svg">
<path fill-rule="evenodd" clip-rule="evenodd" d="M12 2.25C6.61522 2.25 2.25 6.61522 2.25 12C2.25 17.3841 6.61417 21.7489 11.998 21.75H12.002C17.3858 21.7489 21.75 17.3841 21.75 12C21.75 6.61522 17.3848 2.25 12 2.25ZM3.93598 10.25C3.81415 10.814 3.75 11.3995 3.75 12C3.75 12.6005 3.81415 13.186 3.93598 13.75H7.36509C7.29096 13.1832 7.25 12.5983 7.25 12C7.25 11.4017 7.29096 10.8168 7.36509 10.25H3.93598ZM4.41482 8.75H7.64429C7.96288 7.43187 8.44281 6.25178 8.96431 5.28109C9.20265 4.83746 9.45245 4.43233 9.70362 4.07382C7.32025 4.76311 5.38088 6.49829 4.41482 8.75ZM8.87948 10.25C8.79645 10.8153 8.75 11.4007 8.75 12C8.75 12.5993 8.79645 13.1847 8.87948 13.75H15.1205C15.2035 13.1847 15.25 12.5993 15.25 12C15.25 11.4007 15.2035 10.8153 15.1205 10.25H8.87948ZM14.8073 8.75H9.19267C9.47432 7.71128 9.86447 6.77503 10.2857 5.99099C10.6997 5.22042 11.1332 4.61646 11.5033 4.21694C11.6894 4.01611 11.8452 3.88236 11.9604 3.80462C11.9752 3.79468 11.9883 3.78625 12 3.77912C12.0117 3.78625 12.0248 3.79468 12.0396 3.80462C12.1548 3.88236 12.3106 4.01611 12.4967 4.21694C12.8668 4.61646 13.3003 5.22042 13.7143 5.99099C14.1355 6.77503 14.5257 7.71128 14.8073 8.75ZM16.6349 10.25C16.709 10.8168 16.75 11.4017 16.75 12C16.75 12.5983 16.709 13.1832 16.6349 13.75H20.064C20.1858 13.186 20.25 12.6005 20.25 12C20.25 11.3995 20.1858 10.814 20.064 10.25H16.6349ZM19.5852 8.75H16.3557C16.0371 7.43187 15.5572 6.25178 15.0357 5.28109C14.7974 4.83746 14.5475 4.43233 14.2964 4.07382C16.6798 4.76311 18.6191 6.49829 19.5852 8.75ZM9.70362 19.9262C7.32025 19.2369 5.38088 17.5017 4.41482 15.25H7.64429C7.96288 16.5681 8.44281 17.7482 8.96431 18.7189C9.20265 19.1625 9.45245 19.5677 9.70362 19.9262ZM10.2857 18.009C9.86447 17.225 9.47432 16.2887 9.19267 15.25H14.8073C14.5257 16.2887 14.1355 17.225 13.7143 18.009C13.3003 18.7796 12.8668 19.3835 12.4967 19.7831C12.3106 19.9839 12.1548 20.1176 12.0396 20.1954C12.0248 20.2053 12.0117 20.2138 12 20.2209C11.9883 20.2138 11.9752 20.2053 11.9604 20.1954C11.8452 20.1176 11.6894 19.9839 11.5033 19.7831C11.1332 19.3835 10.6997 18.7796 10.2857 18.009ZM15.0357 18.7189C15.5572 17.7482 16.0371 16.5681 16.3557 15.25H19.5852C18.6191 17.5017 16.6798 19.2369 14.2964 19.9262C14.5475 19.5677 14.7974 19.1625 15.0357 18.7189Z" fill="black"/>
</svg>
