<svg width="24" height="24" viewBox="0 0 24 24" fill="none" xmlns="http://www.w3.org/2000/svg">
<path fill-rule="evenodd" clip-rule="evenodd" d="M16.0053 4.10581C17.0793 3.03186 18.8205 3.03187 19.8944 4.10581C20.9684 5.17975 20.9684 6.92095 19.8944 7.99489L18.4544 9.4349L20.9293 16.8595L17.7825 20.0063L14.2077 13.6817L11.3571 16.5322L12.3294 18.3884L9.46458 21.2531L2.74707 14.5356L5.61184 11.6709L7.46799 12.6431L10.3186 9.79256L3.99389 6.21774L7.1407 3.07094L14.5653 5.54581L16.0053 4.10581ZM18.8337 5.16647C18.3456 4.67831 17.5541 4.67831 17.066 5.16647L14.9705 7.262L7.54583 4.78712L6.45 5.88296L12.7747 9.45777L7.74887 14.4836L5.89271 13.5113L4.86839 14.5356L9.46458 19.1318L10.4889 18.1075L9.51663 16.2514L14.5424 11.2255L18.1173 17.5502L19.2131 16.4544L16.7382 9.02976L18.8337 6.93423C19.3219 6.44608 19.3219 5.65462 18.8337 5.16647Z" fill="black"/>
</svg>
