<svg width="24" height="24" viewBox="0 0 24 24" fill="none" xmlns="http://www.w3.org/2000/svg">
<path d="M13.975 2.25005C13.9833 2.25002 13.9917 2.25 14 2.25V2.25018C16.3279 2.26707 18.3751 3.46297 19.5746 5.26695L18.3255 6.09746C17.3879 4.68743 15.7901 3.75851 13.975 3.75006C11.087 3.76352 8.75 6.10884 8.75 9V11.25L13.7 11.25V12.75L8.75 12.75V18C8.75 18.8442 8.47104 19.6233 8.00028 20.25L18.75 20.25V21.75L4.25 21.75L4.25 20.25H5.0006C6.24297 20.2497 7.25 19.2424 7.25 18V12.75H4.25L4.25 11.25H7.25V9C7.25 5.28876 10.2451 2.27705 13.95 2.25018V2.25C13.9583 2.25 13.9667 2.25002 13.975 2.25005Z" fill="black"/>
</svg>
