<svg width="24" height="24" viewBox="0 0 24 24" fill="none" xmlns="http://www.w3.org/2000/svg">
<path d="M12.75 2.25H11.25V14.25H12.75V2.25Z" fill="black"/>
<path d="M9.75 5.08166V3.52556C5.72874 4.53051 2.75 8.16739 2.75 12.5C2.75 17.6086 6.89137 21.75 12 21.75C17.1086 21.75 21.25 17.6086 21.25 12.5C21.25 8.1674 18.2713 4.53051 14.25 3.52556V5.08166C17.4329 6.04577 19.75 9.0023 19.75 12.5C19.75 16.7802 16.2802 20.25 12 20.25C7.71979 20.25 4.25 16.7802 4.25 12.5C4.25 9.0023 6.56708 6.04577 9.75 5.08166Z" fill="black"/>
</svg>
