<svg width="24" height="24" viewBox="0 0 24 24" fill="none" xmlns="http://www.w3.org/2000/svg">
<path d="M8.25 10C8.25 7.92893 9.92893 6.25 12 6.25C14.0711 6.25 15.75 7.92893 15.75 10C15.75 11.8142 14.4617 13.3275 12.75 13.675V14.5125H11.25V12.25H12C13.2426 12.25 14.25 11.2426 14.25 10C14.25 8.75736 13.2426 7.75 12 7.75C10.7574 7.75 9.75 8.75736 9.75 10H8.25Z" fill="black"/>
<path d="M12.75 18V16H11.25V18H12.75Z" fill="black"/>
<path fill-rule="evenodd" clip-rule="evenodd" d="M2.25 12C2.25 6.61522 6.61522 2.25 12 2.25C17.3848 2.25 21.75 6.61522 21.75 12C21.75 17.3848 17.3848 21.75 12 21.75C6.61522 21.75 2.25 17.3848 2.25 12ZM12 3.75C7.44365 3.75 3.75 7.44365 3.75 12C3.75 16.5563 7.44365 20.25 12 20.25C16.5563 20.25 20.25 16.5563 20.25 12C20.25 7.44365 16.5563 3.75 12 3.75Z" fill="black"/>
</svg>
