<svg width="24" height="24" viewBox="0 0 24 24" fill="none" xmlns="http://www.w3.org/2000/svg">
<path d="M15.9378 7.58362C15.5473 7.19309 14.9141 7.19309 14.5236 7.58362C14.133 7.97414 14.133 8.60731 14.5236 8.99783C14.9141 9.38836 15.5473 9.38836 15.9378 8.99783C16.3283 8.60731 16.3283 7.97414 15.9378 7.58362Z" fill="black"/>
<path fill-rule="evenodd" clip-rule="evenodd" d="M20.7301 2.8999L19.8898 10.4623L17.1803 13.1053L18.4793 17.5396L14.2316 21.7873L11.2927 18.8485L8.97511 21.1093L2.25751 14.3917L4.57517 12.1309L1.85724 9.41297L6.10495 5.16526L10.4201 6.4293L13.1781 3.73902L20.7301 2.8999ZM12.3666 17.801L15.9647 14.2912L16.7898 17.1078L14.2316 19.666L12.3666 17.801ZM9.18785 7.63136L5.649 11.0834L3.97856 9.41297L6.53675 6.85477L9.18785 7.63136ZM13.8563 5.17289L4.39208 14.405L8.9882 19.0011L18.4583 9.7633L19.0322 4.59779L13.8563 5.17289Z" fill="black"/>
</svg>
