<svg width="24" height="24" viewBox="0 0 24 24" fill="none" xmlns="http://www.w3.org/2000/svg">
<path d="M10.8622 15.0591L16.4106 9.52651L15.3515 8.46433L10.8622 12.9408L8.64847 10.7335L7.58933 11.7956L10.8622 15.0591Z" fill="black"/>
<path fill-rule="evenodd" clip-rule="evenodd" d="M15.6021 3.72773L12 2.18396L8.39787 3.72773L4.25 3.13518V11.8997C4.25 15.3219 6.09053 18.4795 9.06823 20.166L12.0658 21.8638L14.9952 20.1747C17.9372 18.4784 19.75 15.3407 19.75 11.9447V3.13518L15.6021 3.72773ZM8.60213 5.27214L12 3.81591L15.3979 5.27214L18.25 4.86469V11.9447C18.25 14.8045 16.7235 17.4468 14.246 18.8753L12.0592 20.1361L9.80746 18.8608C7.29992 17.4406 5.75 14.7815 5.75 11.8997V4.86469L8.60213 5.27214Z" fill="black"/>
</svg>
