<svg width="24" height="24" viewBox="0 0 24 24" fill="none" xmlns="http://www.w3.org/2000/svg">
<path fill-rule="evenodd" clip-rule="evenodd" d="M5.75 6.35352V3H4.25V6.35352C3.09575 6.67998 2.25 7.74122 2.25 9C2.25 10.2588 3.09575 11.32 4.25 11.6465V21H5.75V11.6465C6.90425 11.32 7.75 10.2588 7.75 9C7.75 7.74122 6.90425 6.67998 5.75 6.35352ZM3.75 9C3.75 8.30964 4.30964 7.75 5 7.75C5.69036 7.75 6.25 8.30964 6.25 9C6.25 9.69036 5.69036 10.25 5 10.25C4.30964 10.25 3.75 9.69036 3.75 9Z" fill="black"/>
<path fill-rule="evenodd" clip-rule="evenodd" d="M11.25 13.3535C10.0957 13.68 9.25 14.7412 9.25 16C9.25 17.2588 10.0957 18.32 11.25 18.6465V21H12.75V18.6465C13.9043 18.32 14.75 17.2588 14.75 16C14.75 14.7412 13.9043 13.68 12.75 13.3535V3H11.25V13.3535ZM10.75 16C10.75 15.3096 11.3096 14.75 12 14.75C12.6904 14.75 13.25 15.3096 13.25 16C13.25 16.6904 12.6904 17.25 12 17.25C11.3096 17.25 10.75 16.6904 10.75 16Z" fill="black"/>
<path fill-rule="evenodd" clip-rule="evenodd" d="M19.75 8.35352V3H18.25V8.35352C17.0957 8.67998 16.25 9.74122 16.25 11C16.25 12.2588 17.0957 13.32 18.25 13.6465V21H19.75V13.6465C20.9043 13.32 21.75 12.2588 21.75 11C21.75 9.74122 20.9043 8.67998 19.75 8.35352ZM17.75 11C17.75 10.3096 18.3096 9.75 19 9.75C19.6904 9.75 20.25 10.3096 20.25 11C20.25 11.6904 19.6904 12.25 19 12.25C18.3096 12.25 17.75 11.6904 17.75 11Z" fill="black"/>
</svg>
