<svg width="24" height="24" viewBox="0 0 24 24" fill="none" xmlns="http://www.w3.org/2000/svg">
<path d="M15.75 15.75V14.25H8.25V15.75H15.75Z" fill="black"/>
<path d="M8.25 9.75C8.25 9.19772 8.69772 8.75 9.25 8.75C9.80229 8.75 10.25 9.19772 10.25 9.75C10.25 10.3023 9.80229 10.75 9.25 10.75C8.69772 10.75 8.25 10.3023 8.25 9.75Z" fill="black"/>
<path d="M14.75 8.75C14.1977 8.75 13.75 9.19772 13.75 9.75C13.75 10.3023 14.1977 10.75 14.75 10.75C15.3023 10.75 15.75 10.3023 15.75 9.75C15.75 9.19772 15.3023 8.75 14.75 8.75Z" fill="black"/>
<path fill-rule="evenodd" clip-rule="evenodd" d="M12 2.25C6.61522 2.25 2.25 6.61522 2.25 12C2.25 17.3848 6.61522 21.75 12 21.75C17.3848 21.75 21.75 17.3848 21.75 12C21.75 6.61522 17.3848 2.25 12 2.25ZM3.75 12C3.75 7.44365 7.44365 3.75 12 3.75C16.5563 3.75 20.25 7.44365 20.25 12C20.25 16.5563 16.5563 20.25 12 20.25C7.44365 20.25 3.75 16.5563 3.75 12Z" fill="black"/>
</svg>
