<svg width="24" height="24" viewBox="0 0 24 24" fill="none" xmlns="http://www.w3.org/2000/svg">
<path fill-rule="evenodd" clip-rule="evenodd" d="M4.72511 6.58313C4.09307 7.40833 3.75 8.5551 3.75 9.76667C3.75 11.0047 4.23649 12.2494 5.03174 13.4514C5.8256 14.6513 6.89786 15.7637 7.99347 16.721C9.0862 17.6757 10.1825 18.4591 11.0074 19.0044C11.4191 19.2766 11.7613 19.4883 11.9993 19.6312C11.9996 19.6313 11.9998 19.6315 12 19.6316C12.0002 19.6315 12.0004 19.6313 12.0007 19.6312C12.2387 19.4883 12.5809 19.2766 12.9926 19.0044C13.8175 18.4591 14.9138 17.6757 16.0065 16.721C17.1021 15.7637 18.1744 14.6513 18.9683 13.4514C19.7635 12.2494 20.25 11.0047 20.25 9.76667C20.25 8.55376 19.9094 7.40711 19.2791 6.58253C18.6651 5.77922 17.7568 5.25 16.5 5.25C15.2226 5.25 14.2616 5.7791 13.6051 6.32617C13.2765 6.60007 13.0298 6.87427 12.8669 7.0779C12.7858 7.1793 12.7264 7.26201 12.6889 7.31672C12.6701 7.34405 12.6569 7.36427 12.6493 7.37621C12.6455 7.38218 12.643 7.38607 12.642 7.38774C12.6415 7.38857 12.6413 7.38884 12.6415 7.38854L12.0027 8.45329L11.3599 7.39084C11.3601 7.39113 11.3599 7.39084 11.3594 7.39C11.3588 7.38905 11.3577 7.3874 11.3563 7.38507C11.3551 7.38325 11.3537 7.38101 11.352 7.37837C11.3442 7.36636 11.3309 7.34607 11.312 7.31867C11.2741 7.26381 11.2142 7.18095 11.1325 7.07938C10.9685 6.87542 10.7205 6.60087 10.3908 6.32666C9.73179 5.77865 8.77065 5.25 7.5 5.25C6.25019 5.25 5.34128 5.77864 4.72511 6.58313ZM12 20.5L12.3639 21.1558L12 21.3577L11.6361 21.1558L12 20.5ZM3.53427 5.67104C4.42122 4.51302 5.76231 3.75 7.5 3.75C9.21685 3.75 10.5057 4.47135 11.3499 5.17334C11.6042 5.38481 11.8203 5.59616 11.9985 5.78869C12.176 5.59624 12.3914 5.38509 12.6449 5.17383C13.4884 4.4709 14.7774 3.75 16.5 3.75C18.2432 3.75 19.5849 4.51245 20.4709 5.67164C21.3406 6.80956 21.75 8.29624 21.75 9.76667C21.75 11.3986 21.1115 12.9305 20.2192 14.2791C19.3256 15.6298 18.1479 16.842 16.9935 17.8506C15.8362 18.8617 14.6825 19.6854 13.8199 20.2557C13.3878 20.5414 13.027 20.7646 12.7728 20.9172C12.6456 20.9936 12.5451 21.0523 12.4755 21.0924C12.4407 21.1124 12.4136 21.1278 12.3948 21.1384C12.3854 21.1438 12.3781 21.1479 12.3729 21.1508C12.3703 21.1522 12.3683 21.1534 12.3668 21.1542L12.3643 21.1556C12.3641 21.1557 12.3639 21.1558 12 20.5C11.6361 21.1558 11.6359 21.1557 11.6357 21.1556L11.6332 21.1542C11.6317 21.1534 11.6297 21.1522 11.6271 21.1508C11.6219 21.1479 11.6146 21.1438 11.6052 21.1384C11.5864 21.1278 11.5593 21.1124 11.5245 21.0924C11.4549 21.0523 11.3544 20.9936 11.2272 20.9172C10.973 20.7646 10.6122 20.5414 10.1801 20.2557C9.3175 19.6854 8.1638 18.8617 7.00653 17.8506C5.85214 16.842 4.6744 15.6298 3.78076 14.2791C2.88851 12.9305 2.25 11.3986 2.25 9.76667C2.25 8.2949 2.66318 6.80834 3.53427 5.67104Z" fill="black"/>
</svg>
