<svg width="24" height="24" viewBox="0 0 24 24" fill="none" xmlns="http://www.w3.org/2000/svg">
<path d="M11.25 20V21.75H12.75V20H11.25Z" fill="black"/>
<path d="M11.25 2.25V4H12.75V2.25L11.25 2.25Z" fill="black"/>
<path fill-rule="evenodd" clip-rule="evenodd" d="M6.25 12C6.25 8.82436 8.82436 6.25 12 6.25C15.1756 6.25 17.75 8.82436 17.75 12C17.75 15.1756 15.1756 17.75 12 17.75C8.82436 17.75 6.25 15.1756 6.25 12ZM12 7.75C9.65279 7.75 7.75 9.65279 7.75 12C7.75 14.3472 9.65279 16.25 12 16.25C14.3472 16.25 16.25 14.3472 16.25 12C16.25 9.65279 14.3472 7.75 12 7.75Z" fill="black"/>
<path d="M2.25 11.25H4V12.75H2.25V11.25Z" fill="black"/>
<path d="M20 11.25H21.75V12.75H20V11.25Z" fill="black"/>
<path d="M5.63604 4.57539L6.87347 5.81283L5.81281 6.87349L4.57538 5.63605L5.63604 4.57539Z" fill="black"/>
<path d="M18.1872 17.1265L19.4246 18.364L18.364 19.4246L17.1265 18.1872L18.1872 17.1265Z" fill="black"/>
<path d="M5.81283 17.1265L4.57539 18.364L5.63605 19.4246L6.87349 18.1872L5.81283 17.1265Z" fill="black"/>
<path d="M18.364 4.57538L17.1265 5.81282L18.1872 6.87348L19.4246 5.63604L18.364 4.57538Z" fill="black"/>
</svg>
