<svg width="24" height="24" viewBox="0 0 24 24" fill="none" xmlns="http://www.w3.org/2000/svg">
<path fill-rule="evenodd" clip-rule="evenodd" d="M12 2.25C9.65279 2.25 7.75 4.15279 7.75 6.5C7.75 8.84721 9.65279 10.75 12 10.75C14.3472 10.75 16.25 8.84721 16.25 6.5C16.25 4.15279 14.3472 2.25 12 2.25ZM9.25 6.5C9.25 4.98122 10.4812 3.75 12 3.75C13.5188 3.75 14.75 4.98122 14.75 6.5C14.75 8.01878 13.5188 9.25 12 9.25C10.4812 9.25 9.25 8.01878 9.25 6.5Z" fill="black"/>
<path fill-rule="evenodd" clip-rule="evenodd" d="M12 12.75C7.71979 12.75 4.25 16.2198 4.25 20.5V21.75H19.75V20.5C19.75 16.2198 16.2802 12.75 12 12.75ZM12 14.25C15.3681 14.25 18.1139 16.9141 18.2451 20.25H5.75491C5.88613 16.9141 8.63195 14.25 12 14.25Z" fill="black"/>
</svg>
