<svg width="24" height="24" viewBox="0 0 24 24" fill="none" xmlns="http://www.w3.org/2000/svg">
<path d="M11.25 9.25L11.25 12.75L14.75 12.75L14.75 11.25L12.75 11.25V9.25L11.25 9.25Z" fill="black"/>
<path fill-rule="evenodd" clip-rule="evenodd" d="M16.75 2.25H7.275V7.17953C6.02533 8.40461 5.25 10.1118 5.25 12C5.25 13.8882 6.02533 15.5954 7.275 16.8205V21.75H16.75V16.7958C17.985 15.5726 18.75 13.8756 18.75 12C18.75 10.1244 17.985 8.42744 16.75 7.20417V2.25ZM8.775 20.25V17.9312C9.73321 18.4533 10.832 18.75 12 18.75C13.1782 18.75 14.2859 18.4481 15.25 17.9175V20.25H8.775ZM15.25 6.08249V3.75H8.775V6.0688C9.73321 5.54668 10.832 5.25 12 5.25C13.1782 5.25 14.2859 5.55187 15.25 6.08249ZM6.75 12C6.75 9.10051 9.10051 6.75 12 6.75C14.8995 6.75 17.25 9.10051 17.25 12C17.25 14.8995 14.8995 17.25 12 17.25C9.10051 17.25 6.75 14.8995 6.75 12Z" fill="black"/>
</svg>
