<svg width="24" height="24" viewBox="0 0 24 24" fill="none" xmlns="http://www.w3.org/2000/svg">
<path d="M21.7227 9.61896C21.8318 9.72797 21.9386 9.83836 22.0431 9.95006L20.9818 11.0114C20.8777 10.8993 20.7711 10.7887 20.6621 10.6796C15.8782 5.89569 8.12189 5.89569 3.33797 10.6796C3.2289 10.7887 3.12232 10.8993 3.01823 11.0114L1.95691 9.95006C2.0615 9.83836 2.16829 9.72797 2.27731 9.61896C7.64702 4.24925 16.353 4.24925 21.7227 9.61896Z" fill="black"/>
<path d="M18.8943 12.4474C19.0035 12.5566 19.1096 12.6677 19.2125 12.7807L18.1505 13.8427C18.0486 13.729 17.943 13.6174 17.8336 13.508C14.6118 10.2862 9.38821 10.2862 6.16638 13.508C6.05707 13.6174 5.95146 13.729 5.84957 13.8427L4.78752 12.7807C4.89046 12.6677 4.99653 12.5566 5.10572 12.4474C8.91334 8.63977 15.0867 8.63977 18.8943 12.4474Z" fill="black"/>
<path d="M16.3788 15.6144C16.2798 15.4985 16.1755 15.3855 16.0659 15.2758C13.8204 13.0303 10.1797 13.0303 7.93415 15.2758C7.82449 15.3855 7.72019 15.4985 7.62124 15.6144L8.68649 16.6797C8.78196 16.5612 8.88474 16.4465 8.99481 16.3365C10.6545 14.6767 13.3455 14.6767 15.0052 16.3365C15.1153 16.4465 15.2181 16.5612 15.3135 16.6797L16.3788 15.6144Z" fill="black"/>
<path d="M12 19.9932L13.5199 18.4733C13.4444 18.3413 13.3502 18.217 13.2375 18.1042C12.5541 17.4208 11.446 17.4208 10.7626 18.1042C10.6498 18.217 10.5557 18.3413 10.4802 18.4733L12 19.9932Z" fill="black"/>
</svg>
